ISO-10303-21;
HEADER;
/* Generated by software containing ST-Developer
 * from STEP Tools, Inc. (www.steptools.com) 
 */

FILE_DESCRIPTION(
/* description */ (''),
/* implementation_level */ '2;1');

FILE_NAME(
/* name */ 'universal 20x3mm tutti.step',
/* time_stamp */ '2026-04-14T19:48:17+02:00',
/* author */ (''),
/* organization */ (''),
/* preprocessor_version */ 'ST-DEVELOPER v20.1',
/* originating_system */ 'Autodesk Translation Framework v14.24.0.0',
/* authorisation */ '');

FILE_SCHEMA (('AUTOMOTIVE_DESIGN { 1 0 10303 214 3 1 1 }'));
ENDSEC;

DATA;
#10=MECHANICAL_DESIGN_GEOMETRIC_PRESENTATION_REPRESENTATION('',(#13),#1155);
#11=SHAPE_REPRESENTATION_RELATIONSHIP('SRR','None',#1162,#12);
#12=ADVANCED_BREP_SHAPE_REPRESENTATION('',(#14),#1154);
#13=STYLED_ITEM('',(#1171),#14);
#14=MANIFOLD_SOLID_BREP('Body1',#444);
#15=FACE_BOUND('',#119,.T.);
#16=CONICAL_SURFACE('',#487,8.25,0.165148677414627);
#17=CYLINDRICAL_SURFACE('',#466,1.5);
#18=CYLINDRICAL_SURFACE('',#469,1.5);
#19=CYLINDRICAL_SURFACE('',#482,1.5);
#20=CYLINDRICAL_SURFACE('',#485,1.5);
#21=CYLINDRICAL_SURFACE('',#496,10.);
#22=LINE('',#831,#40);
#23=LINE('',#833,#41);
#24=LINE('',#834,#42);
#25=LINE('',#837,#43);
#26=LINE('',#850,#44);
#27=LINE('',#854,#45);
#28=LINE('',#867,#46);
#29=LINE('',#868,#47);
#30=LINE('',#902,#48);
#31=LINE('',#1098,#49);
#32=LINE('',#1099,#50);
#33=LINE('',#1102,#51);
#34=LINE('',#1115,#52);
#35=LINE('',#1119,#53);
#36=LINE('',#1132,#54);
#37=LINE('',#1133,#55);
#38=LINE('',#1137,#56);
#39=LINE('',#1150,#57);
#40=VECTOR('',#517,10.);
#41=VECTOR('',#518,10.);
#42=VECTOR('',#519,10.);
#43=VECTOR('',#522,10.);
#44=VECTOR('',#525,10.);
#45=VECTOR('',#530,10.);
#46=VECTOR('',#533,10.);
#47=VECTOR('',#534,10.);
#48=VECTOR('',#539,10.);
#49=VECTOR('',#558,10.);
#50=VECTOR('',#559,10.);
#51=VECTOR('',#562,10.);
#52=VECTOR('',#565,10.);
#53=VECTOR('',#570,10.);
#54=VECTOR('',#573,10.);
#55=VECTOR('',#574,10.);
#56=VECTOR('',#579,8.25);
#57=VECTOR('',#598,10.);
#58=PLANE('',#465);
#59=PLANE('',#467);
#60=PLANE('',#470);
#61=PLANE('',#471);
#62=PLANE('',#481);
#63=PLANE('',#483);
#64=PLANE('',#486);
#65=PLANE('',#490);
#66=PLANE('',#498);
#67=TOROIDAL_SURFACE('',#460,8.56942541767661,0.2);
#68=TOROIDAL_SURFACE('',#476,8.56942541767661,0.2);
#69=TOROIDAL_SURFACE('',#492,9.8,0.2);
#70=FACE_OUTER_BOUND('',#96,.T.);
#71=FACE_OUTER_BOUND('',#97,.T.);
#72=FACE_OUTER_BOUND('',#98,.T.);
#73=FACE_OUTER_BOUND('',#99,.T.);
#74=FACE_OUTER_BOUND('',#100,.T.);
#75=FACE_OUTER_BOUND('',#101,.T.);
#76=FACE_OUTER_BOUND('',#102,.T.);
#77=FACE_OUTER_BOUND('',#103,.T.);
#78=FACE_OUTER_BOUND('',#104,.T.);
#79=FACE_OUTER_BOUND('',#105,.T.);
#80=FACE_OUTER_BOUND('',#106,.T.);
#81=FACE_OUTER_BOUND('',#107,.T.);
#82=FACE_OUTER_BOUND('',#108,.T.);
#83=FACE_OUTER_BOUND('',#109,.T.);
#84=FACE_OUTER_BOUND('',#110,.T.);
#85=FACE_OUTER_BOUND('',#111,.T.);
#86=FACE_OUTER_BOUND('',#112,.T.);
#87=FACE_OUTER_BOUND('',#113,.T.);
#88=FACE_OUTER_BOUND('',#114,.T.);
#89=FACE_OUTER_BOUND('',#115,.T.);
#90=FACE_OUTER_BOUND('',#116,.T.);
#91=FACE_OUTER_BOUND('',#117,.T.);
#92=FACE_OUTER_BOUND('',#118,.T.);
#93=FACE_OUTER_BOUND('',#120,.T.);
#94=FACE_OUTER_BOUND('',#121,.T.);
#95=FACE_OUTER_BOUND('',#122,.T.);
#96=EDGE_LOOP('',(#278,#279,#280,#281));
#97=EDGE_LOOP('',(#282,#283,#284,#285));
#98=EDGE_LOOP('',(#286,#287,#288,#289));
#99=EDGE_LOOP('',(#290,#291,#292,#293,#294));
#100=EDGE_LOOP('',(#295,#296,#297,#298));
#101=EDGE_LOOP('',(#299,#300,#301,#302));
#102=EDGE_LOOP('',(#303,#304,#305,#306));
#103=EDGE_LOOP('',(#307,#308,#309,#310));
#104=EDGE_LOOP('',(#311,#312,#313,#314));
#105=EDGE_LOOP('',(#315,#316,#317,#318));
#106=EDGE_LOOP('',(#319,#320,#321,#322,#323,#324));
#107=EDGE_LOOP('',(#325,#326,#327,#328));
#108=EDGE_LOOP('',(#329,#330,#331,#332));
#109=EDGE_LOOP('',(#333,#334,#335,#336));
#110=EDGE_LOOP('',(#337,#338,#339,#340));
#111=EDGE_LOOP('',(#341,#342,#343,#344));
#112=EDGE_LOOP('',(#345,#346,#347,#348));
#113=EDGE_LOOP('',(#349,#350,#351,#352));
#114=EDGE_LOOP('',(#353,#354,#355,#356));
#115=EDGE_LOOP('',(#357,#358,#359,#360));
#116=EDGE_LOOP('',(#361,#362,#363,#364));
#117=EDGE_LOOP('',(#365,#366,#367,#368,#369,#370,#371,#372,#373,#374,#375,
#376,#377,#378,#379,#380));
#118=EDGE_LOOP('',(#381));
#119=EDGE_LOOP('',(#382));
#120=EDGE_LOOP('',(#383,#384,#385,#386,#387));
#121=EDGE_LOOP('',(#388,#389,#390,#391,#392,#393,#394,#395,#396,#397,#398,
#399,#400,#401,#402,#403));
#122=EDGE_LOOP('',(#404,#405,#406,#407,#408,#409));
#123=CIRCLE('',#458,0.2);
#124=CIRCLE('',#459,0.2);
#125=CIRCLE('',#461,0.2);
#126=CIRCLE('',#462,8.37214663291018);
#127=CIRCLE('',#463,8.56942541767661);
#128=CIRCLE('',#464,0.2);
#129=CIRCLE('',#468,10.);
#130=CIRCLE('',#472,8.);
#131=CIRCLE('',#473,10.);
#132=CIRCLE('',#474,0.2);
#133=CIRCLE('',#475,0.2);
#134=CIRCLE('',#477,0.2);
#135=CIRCLE('',#478,8.37214663291018);
#136=CIRCLE('',#479,8.56942541767661);
#137=CIRCLE('',#480,0.2);
#138=CIRCLE('',#484,10.);
#139=CIRCLE('',#488,8.);
#140=CIRCLE('',#489,8.5);
#141=CIRCLE('',#491,9.8);
#142=CIRCLE('',#493,10.);
#143=CIRCLE('',#494,10.);
#144=CIRCLE('',#495,0.2);
#145=CIRCLE('',#497,10.);
#146=B_SPLINE_CURVE_WITH_KNOTS('',3,(#624,#625,#626,#627,#628,#629,#630,
#631,#632,#633,#634,#635,#636,#637,#638,#639,#640,#641,#642,#643,#644,#645,
#646,#647,#648,#649,#650,#651),.UNSPECIFIED.,.F.,.F.,(4,3,3,3,3,3,3,3,3,
4),(0.,0.00399629821440735,0.00771398730314983,0.0117263814006544,0.0133300456928597,
0.0154875214330504,0.0195230978250431,0.0233731022455567,0.0274182236287731,
0.0312398463670395),.UNSPECIFIED.);
#147=B_SPLINE_CURVE_WITH_KNOTS('',3,(#653,#654,#655,#656),.UNSPECIFIED.,
 .F.,.F.,(4,4),(0.0203620806125632,0.0710521717244002),.UNSPECIFIED.);
#148=B_SPLINE_CURVE_WITH_KNOTS('',3,(#659,#660,#661,#662),.UNSPECIFIED.,
 .F.,.F.,(4,4),(-0.0710521717244002,-0.0170287204669274),.UNSPECIFIED.);
#149=B_SPLINE_CURVE_WITH_KNOTS('',3,(#696,#697,#698,#699,#700,#701),
 .UNSPECIFIED.,.F.,.F.,(4,1,1,4),(-0.269008513421161,-0.192148938157972,
-0.115289362894783,0.),.UNSPECIFIED.);
#150=B_SPLINE_CURVE_WITH_KNOTS('',3,(#702,#703,#704,#705,#706,#707),
 .UNSPECIFIED.,.F.,.F.,(4,1,1,4),(0.,0.115289362894783,0.192148938157972,
0.269008513421161),.UNSPECIFIED.);
#151=B_SPLINE_CURVE_WITH_KNOTS('',3,(#753,#754,#755,#756,#757),
 .UNSPECIFIED.,.F.,.F.,(4,1,4),(-0.269008073431042,-0.192148623879315,-0.184615398963069),
 .UNSPECIFIED.);
#152=B_SPLINE_CURVE_WITH_KNOTS('',3,(#758,#759,#760,#761,#762,#763),
 .UNSPECIFIED.,.F.,.F.,(4,1,1,4),(-0.184615398963069,-0.115289174327589,
-0.0768594495517262,0.),.UNSPECIFIED.);
#153=B_SPLINE_CURVE_WITH_KNOTS('',3,(#764,#765,#766,#767,#768,#769,#770),
 .UNSPECIFIED.,.F.,.F.,(4,1,1,1,4),(0.,0.0768594495517262,0.115289174327589,
0.192148623879315,0.269008073431042),.UNSPECIFIED.);
#154=B_SPLINE_CURVE_WITH_KNOTS('',3,(#793,#794,#795,#796,#797,#798,#799,
#800,#801,#802,#803,#804,#805,#806,#807,#808,#809,#810,#811,#812,#813,#814,
#815,#816,#817,#818,#819,#820),.UNSPECIFIED.,.F.,.F.,(4,3,3,3,3,3,3,3,3,
4),(0.,0.00404870954804363,0.00802335623122398,0.0120589328341449,0.0159890028209909,
0.0179212552758334,0.0219358265458354,0.0238411316302545,0.0278375278829576,
0.0312576346994003),.UNSPECIFIED.);
#155=B_SPLINE_CURVE_WITH_KNOTS('',3,(#821,#822,#823,#824),.UNSPECIFIED.,
 .F.,.F.,(4,4),(-0.0540234512574727,0.),.UNSPECIFIED.);
#156=B_SPLINE_CURVE_WITH_KNOTS('',3,(#825,#826,#827,#828),.UNSPECIFIED.,
 .F.,.F.,(4,4),(0.,0.050690091111837),.UNSPECIFIED.);
#157=B_SPLINE_CURVE_WITH_KNOTS('',3,(#838,#839,#840,#841,#842,#843,#844,
#845,#846,#847),.UNSPECIFIED.,.F.,.F.,(4,2,2,2,4),(0.228868525645369,0.28564096373576,
0.342413401826152,0.398924912666762,0.455436423507373),.UNSPECIFIED.);
#158=B_SPLINE_CURVE_WITH_KNOTS('',3,(#855,#856,#857,#858,#859,#860,#861,
#862,#863,#864),.UNSPECIFIED.,.F.,.F.,(4,2,2,2,4),(0.455436423507373,0.511947934347983,
0.568459445188594,0.625231883278985,0.682004321369377),.UNSPECIFIED.);
#159=B_SPLINE_CURVE_WITH_KNOTS('',3,(#873,#874,#875,#876,#877,#878,#879,
#880,#881,#882,#883,#884,#885,#886,#887,#888,#889,#890,#891,#892,#893,#894,
#895,#896,#897,#898,#899,#900),.UNSPECIFIED.,.F.,.F.,(4,3,3,3,3,3,3,3,3,
4),(0.,0.00404870954787547,0.00802335621150251,0.0120589328149439,0.0159890027332955,
0.0179212552752581,0.021935826545115,0.0238411314675593,0.0278375277214026,
0.0312576346991999),.UNSPECIFIED.);
#160=B_SPLINE_CURVE_WITH_KNOTS('',3,(#926,#927,#928,#929,#930,#931,#932,
#933,#934,#935,#936,#937,#938,#939,#940,#941,#942,#943,#944,#945,#946,#947,
#948,#949,#950,#951,#952,#953),.UNSPECIFIED.,.F.,.F.,(4,3,3,3,3,3,3,3,3,
4),(0.,0.00399629821455023,0.00771398732067927,0.0117263814185377,0.0133300456932653,
0.0154875215132751,0.0195230979069678,0.023373102399333,0.0274182237812126,
0.0312398463670367),.UNSPECIFIED.);
#161=B_SPLINE_CURVE_WITH_KNOTS('',3,(#955,#956,#957,#958),.UNSPECIFIED.,
 .F.,.F.,(4,4),(0.0202760387502356,0.0709661298620727),.UNSPECIFIED.);
#162=B_SPLINE_CURVE_WITH_KNOTS('',3,(#961,#962,#963,#964),.UNSPECIFIED.,
 .F.,.F.,(4,4),(-0.0709661298620727,-0.0169426786045999),.UNSPECIFIED.);
#163=B_SPLINE_CURVE_WITH_KNOTS('',3,(#998,#999,#1000,#1001,#1002,#1003),
 .UNSPECIFIED.,.F.,.F.,(4,1,1,4),(-0.269008513421161,-0.192148938157972,
-0.115289362894783,-2.14435556422523E-17),.UNSPECIFIED.);
#164=B_SPLINE_CURVE_WITH_KNOTS('',3,(#1004,#1005,#1006,#1007,#1008,#1009),
 .UNSPECIFIED.,.F.,.F.,(4,1,1,4),(2.14435556422523E-17,0.115289362894783,
0.192148938157972,0.269008513421161),.UNSPECIFIED.);
#165=B_SPLINE_CURVE_WITH_KNOTS('',3,(#1054,#1055,#1056,#1057,#1058,#1059,
#1060),.UNSPECIFIED.,.F.,.F.,(4,1,1,1,4),(-0.269008073431042,-0.192148623879315,
-0.115289174327589,-0.0768594495517262,0.),.UNSPECIFIED.);
#166=B_SPLINE_CURVE_WITH_KNOTS('',3,(#1061,#1062,#1063,#1064,#1065,#1066,
#1067),.UNSPECIFIED.,.F.,.F.,(4,1,1,1,4),(0.,0.0768594495517262,0.115289174327589,
0.192148623879315,0.269008073431042),.UNSPECIFIED.);
#167=B_SPLINE_CURVE_WITH_KNOTS('',3,(#1088,#1089,#1090,#1091),
 .UNSPECIFIED.,.F.,.F.,(4,4),(-0.0540234512574725,0.),.UNSPECIFIED.);
#168=B_SPLINE_CURVE_WITH_KNOTS('',3,(#1092,#1093,#1094,#1095),
 .UNSPECIFIED.,.F.,.F.,(4,4),(0.,0.0506900911118369),.UNSPECIFIED.);
#169=B_SPLINE_CURVE_WITH_KNOTS('',3,(#1103,#1104,#1105,#1106,#1107,#1108,
#1109,#1110,#1111,#1112),.UNSPECIFIED.,.F.,.F.,(4,2,2,2,4),(0.228868525645369,
0.28564096373576,0.342413401826152,0.398924912666762,0.455436423507373),
 .UNSPECIFIED.);
#170=B_SPLINE_CURVE_WITH_KNOTS('',3,(#1120,#1121,#1122,#1123,#1124,#1125,
#1126,#1127,#1128,#1129),.UNSPECIFIED.,.F.,.F.,(4,2,2,2,4),(0.455436423507373,
0.511947934347983,0.568459445188594,0.625231883278985,0.682004321369377),
 .UNSPECIFIED.);
#171=VERTEX_POINT('',#622);
#172=VERTEX_POINT('',#623);
#173=VERTEX_POINT('',#652);
#174=VERTEX_POINT('',#657);
#175=VERTEX_POINT('',#693);
#176=VERTEX_POINT('',#694);
#177=VERTEX_POINT('',#709);
#178=VERTEX_POINT('',#710);
#179=VERTEX_POINT('',#749);
#180=VERTEX_POINT('',#750);
#181=VERTEX_POINT('',#752);
#182=VERTEX_POINT('',#791);
#183=VERTEX_POINT('',#792);
#184=VERTEX_POINT('',#830);
#185=VERTEX_POINT('',#832);
#186=VERTEX_POINT('',#836);
#187=VERTEX_POINT('',#849);
#188=VERTEX_POINT('',#853);
#189=VERTEX_POINT('',#866);
#190=VERTEX_POINT('',#870);
#191=VERTEX_POINT('',#872);
#192=VERTEX_POINT('',#901);
#193=VERTEX_POINT('',#924);
#194=VERTEX_POINT('',#925);
#195=VERTEX_POINT('',#954);
#196=VERTEX_POINT('',#959);
#197=VERTEX_POINT('',#995);
#198=VERTEX_POINT('',#996);
#199=VERTEX_POINT('',#1011);
#200=VERTEX_POINT('',#1012);
#201=VERTEX_POINT('',#1051);
#202=VERTEX_POINT('',#1052);
#203=VERTEX_POINT('',#1097);
#204=VERTEX_POINT('',#1101);
#205=VERTEX_POINT('',#1114);
#206=VERTEX_POINT('',#1118);
#207=VERTEX_POINT('',#1131);
#208=VERTEX_POINT('',#1136);
#209=VERTEX_POINT('',#1140);
#210=VERTEX_POINT('',#1143);
#211=VERTEX_POINT('',#1144);
#212=EDGE_CURVE('',#171,#172,#146,.T.);
#213=EDGE_CURVE('',#172,#173,#147,.T.);
#214=EDGE_CURVE('',#173,#174,#123,.T.);
#215=EDGE_CURVE('',#174,#171,#148,.T.);
#216=EDGE_CURVE('',#175,#176,#124,.T.);
#217=EDGE_CURVE('',#176,#174,#149,.T.);
#218=EDGE_CURVE('',#173,#175,#150,.T.);
#219=EDGE_CURVE('',#177,#178,#125,.T.);
#220=EDGE_CURVE('',#178,#176,#126,.T.);
#221=EDGE_CURVE('',#175,#177,#127,.T.);
#222=EDGE_CURVE('',#179,#180,#128,.T.);
#223=EDGE_CURVE('',#180,#181,#151,.T.);
#224=EDGE_CURVE('',#181,#178,#152,.T.);
#225=EDGE_CURVE('',#177,#179,#153,.T.);
#226=EDGE_CURVE('',#182,#183,#154,.T.);
#227=EDGE_CURVE('',#183,#180,#155,.T.);
#228=EDGE_CURVE('',#179,#182,#156,.T.);
#229=EDGE_CURVE('',#184,#179,#22,.T.);
#230=EDGE_CURVE('',#184,#185,#23,.T.);
#231=EDGE_CURVE('',#182,#185,#24,.T.);
#232=EDGE_CURVE('',#177,#186,#25,.T.);
#233=EDGE_CURVE('',#186,#184,#157,.T.);
#234=EDGE_CURVE('',#187,#175,#26,.T.);
#235=EDGE_CURVE('',#187,#186,#129,.T.);
#236=EDGE_CURVE('',#173,#188,#27,.T.);
#237=EDGE_CURVE('',#188,#187,#158,.T.);
#238=EDGE_CURVE('',#189,#172,#28,.T.);
#239=EDGE_CURVE('',#188,#189,#29,.T.);
#240=EDGE_CURVE('',#171,#190,#130,.T.);
#241=EDGE_CURVE('',#191,#190,#159,.T.);
#242=EDGE_CURVE('',#191,#192,#30,.T.);
#243=EDGE_CURVE('',#192,#189,#131,.T.);
#244=EDGE_CURVE('',#193,#194,#160,.T.);
#245=EDGE_CURVE('',#194,#195,#161,.T.);
#246=EDGE_CURVE('',#195,#196,#132,.T.);
#247=EDGE_CURVE('',#196,#193,#162,.T.);
#248=EDGE_CURVE('',#197,#198,#133,.T.);
#249=EDGE_CURVE('',#198,#196,#163,.T.);
#250=EDGE_CURVE('',#195,#197,#164,.T.);
#251=EDGE_CURVE('',#199,#200,#134,.T.);
#252=EDGE_CURVE('',#200,#198,#135,.T.);
#253=EDGE_CURVE('',#197,#199,#136,.T.);
#254=EDGE_CURVE('',#201,#202,#137,.T.);
#255=EDGE_CURVE('',#202,#200,#165,.T.);
#256=EDGE_CURVE('',#199,#201,#166,.T.);
#257=EDGE_CURVE('',#190,#202,#167,.T.);
#258=EDGE_CURVE('',#201,#191,#168,.T.);
#259=EDGE_CURVE('',#203,#201,#31,.T.);
#260=EDGE_CURVE('',#203,#192,#32,.T.);
#261=EDGE_CURVE('',#199,#204,#33,.T.);
#262=EDGE_CURVE('',#204,#203,#169,.T.);
#263=EDGE_CURVE('',#205,#197,#34,.T.);
#264=EDGE_CURVE('',#205,#204,#138,.T.);
#265=EDGE_CURVE('',#195,#206,#35,.T.);
#266=EDGE_CURVE('',#206,#205,#170,.T.);
#267=EDGE_CURVE('',#207,#194,#36,.T.);
#268=EDGE_CURVE('',#206,#207,#37,.T.);
#269=EDGE_CURVE('',#193,#183,#139,.T.);
#270=EDGE_CURVE('',#181,#208,#38,.T.);
#271=EDGE_CURVE('',#208,#208,#140,.T.);
#272=EDGE_CURVE('',#209,#209,#141,.T.);
#273=EDGE_CURVE('',#210,#211,#142,.T.);
#274=EDGE_CURVE('',#211,#210,#143,.T.);
#275=EDGE_CURVE('',#210,#209,#144,.T.);
#276=EDGE_CURVE('',#185,#207,#145,.T.);
#277=EDGE_CURVE('',#184,#211,#39,.T.);
#278=ORIENTED_EDGE('',*,*,#212,.T.);
#279=ORIENTED_EDGE('',*,*,#213,.T.);
#280=ORIENTED_EDGE('',*,*,#214,.T.);
#281=ORIENTED_EDGE('',*,*,#215,.T.);
#282=ORIENTED_EDGE('',*,*,#216,.T.);
#283=ORIENTED_EDGE('',*,*,#217,.T.);
#284=ORIENTED_EDGE('',*,*,#214,.F.);
#285=ORIENTED_EDGE('',*,*,#218,.T.);
#286=ORIENTED_EDGE('',*,*,#219,.T.);
#287=ORIENTED_EDGE('',*,*,#220,.T.);
#288=ORIENTED_EDGE('',*,*,#216,.F.);
#289=ORIENTED_EDGE('',*,*,#221,.T.);
#290=ORIENTED_EDGE('',*,*,#222,.T.);
#291=ORIENTED_EDGE('',*,*,#223,.T.);
#292=ORIENTED_EDGE('',*,*,#224,.T.);
#293=ORIENTED_EDGE('',*,*,#219,.F.);
#294=ORIENTED_EDGE('',*,*,#225,.T.);
#295=ORIENTED_EDGE('',*,*,#226,.T.);
#296=ORIENTED_EDGE('',*,*,#227,.T.);
#297=ORIENTED_EDGE('',*,*,#222,.F.);
#298=ORIENTED_EDGE('',*,*,#228,.T.);
#299=ORIENTED_EDGE('',*,*,#228,.F.);
#300=ORIENTED_EDGE('',*,*,#229,.F.);
#301=ORIENTED_EDGE('',*,*,#230,.T.);
#302=ORIENTED_EDGE('',*,*,#231,.F.);
#303=ORIENTED_EDGE('',*,*,#225,.F.);
#304=ORIENTED_EDGE('',*,*,#232,.T.);
#305=ORIENTED_EDGE('',*,*,#233,.T.);
#306=ORIENTED_EDGE('',*,*,#229,.T.);
#307=ORIENTED_EDGE('',*,*,#221,.F.);
#308=ORIENTED_EDGE('',*,*,#234,.F.);
#309=ORIENTED_EDGE('',*,*,#235,.T.);
#310=ORIENTED_EDGE('',*,*,#232,.F.);
#311=ORIENTED_EDGE('',*,*,#218,.F.);
#312=ORIENTED_EDGE('',*,*,#236,.T.);
#313=ORIENTED_EDGE('',*,*,#237,.T.);
#314=ORIENTED_EDGE('',*,*,#234,.T.);
#315=ORIENTED_EDGE('',*,*,#213,.F.);
#316=ORIENTED_EDGE('',*,*,#238,.F.);
#317=ORIENTED_EDGE('',*,*,#239,.F.);
#318=ORIENTED_EDGE('',*,*,#236,.F.);
#319=ORIENTED_EDGE('',*,*,#212,.F.);
#320=ORIENTED_EDGE('',*,*,#240,.T.);
#321=ORIENTED_EDGE('',*,*,#241,.F.);
#322=ORIENTED_EDGE('',*,*,#242,.T.);
#323=ORIENTED_EDGE('',*,*,#243,.T.);
#324=ORIENTED_EDGE('',*,*,#238,.T.);
#325=ORIENTED_EDGE('',*,*,#244,.T.);
#326=ORIENTED_EDGE('',*,*,#245,.T.);
#327=ORIENTED_EDGE('',*,*,#246,.T.);
#328=ORIENTED_EDGE('',*,*,#247,.T.);
#329=ORIENTED_EDGE('',*,*,#248,.T.);
#330=ORIENTED_EDGE('',*,*,#249,.T.);
#331=ORIENTED_EDGE('',*,*,#246,.F.);
#332=ORIENTED_EDGE('',*,*,#250,.T.);
#333=ORIENTED_EDGE('',*,*,#251,.T.);
#334=ORIENTED_EDGE('',*,*,#252,.T.);
#335=ORIENTED_EDGE('',*,*,#248,.F.);
#336=ORIENTED_EDGE('',*,*,#253,.T.);
#337=ORIENTED_EDGE('',*,*,#254,.T.);
#338=ORIENTED_EDGE('',*,*,#255,.T.);
#339=ORIENTED_EDGE('',*,*,#251,.F.);
#340=ORIENTED_EDGE('',*,*,#256,.T.);
#341=ORIENTED_EDGE('',*,*,#241,.T.);
#342=ORIENTED_EDGE('',*,*,#257,.T.);
#343=ORIENTED_EDGE('',*,*,#254,.F.);
#344=ORIENTED_EDGE('',*,*,#258,.T.);
#345=ORIENTED_EDGE('',*,*,#258,.F.);
#346=ORIENTED_EDGE('',*,*,#259,.F.);
#347=ORIENTED_EDGE('',*,*,#260,.T.);
#348=ORIENTED_EDGE('',*,*,#242,.F.);
#349=ORIENTED_EDGE('',*,*,#256,.F.);
#350=ORIENTED_EDGE('',*,*,#261,.T.);
#351=ORIENTED_EDGE('',*,*,#262,.T.);
#352=ORIENTED_EDGE('',*,*,#259,.T.);
#353=ORIENTED_EDGE('',*,*,#253,.F.);
#354=ORIENTED_EDGE('',*,*,#263,.F.);
#355=ORIENTED_EDGE('',*,*,#264,.T.);
#356=ORIENTED_EDGE('',*,*,#261,.F.);
#357=ORIENTED_EDGE('',*,*,#250,.F.);
#358=ORIENTED_EDGE('',*,*,#265,.T.);
#359=ORIENTED_EDGE('',*,*,#266,.T.);
#360=ORIENTED_EDGE('',*,*,#263,.T.);
#361=ORIENTED_EDGE('',*,*,#245,.F.);
#362=ORIENTED_EDGE('',*,*,#267,.F.);
#363=ORIENTED_EDGE('',*,*,#268,.F.);
#364=ORIENTED_EDGE('',*,*,#265,.F.);
#365=ORIENTED_EDGE('',*,*,#227,.F.);
#366=ORIENTED_EDGE('',*,*,#269,.F.);
#367=ORIENTED_EDGE('',*,*,#247,.F.);
#368=ORIENTED_EDGE('',*,*,#249,.F.);
#369=ORIENTED_EDGE('',*,*,#252,.F.);
#370=ORIENTED_EDGE('',*,*,#255,.F.);
#371=ORIENTED_EDGE('',*,*,#257,.F.);
#372=ORIENTED_EDGE('',*,*,#240,.F.);
#373=ORIENTED_EDGE('',*,*,#215,.F.);
#374=ORIENTED_EDGE('',*,*,#217,.F.);
#375=ORIENTED_EDGE('',*,*,#220,.F.);
#376=ORIENTED_EDGE('',*,*,#224,.F.);
#377=ORIENTED_EDGE('',*,*,#270,.T.);
#378=ORIENTED_EDGE('',*,*,#271,.T.);
#379=ORIENTED_EDGE('',*,*,#270,.F.);
#380=ORIENTED_EDGE('',*,*,#223,.F.);
#381=ORIENTED_EDGE('',*,*,#272,.F.);
#382=ORIENTED_EDGE('',*,*,#271,.F.);
#383=ORIENTED_EDGE('',*,*,#273,.T.);
#384=ORIENTED_EDGE('',*,*,#274,.T.);
#385=ORIENTED_EDGE('',*,*,#275,.T.);
#386=ORIENTED_EDGE('',*,*,#272,.T.);
#387=ORIENTED_EDGE('',*,*,#275,.F.);
#388=ORIENTED_EDGE('',*,*,#268,.T.);
#389=ORIENTED_EDGE('',*,*,#276,.F.);
#390=ORIENTED_EDGE('',*,*,#230,.F.);
#391=ORIENTED_EDGE('',*,*,#277,.T.);
#392=ORIENTED_EDGE('',*,*,#273,.F.);
#393=ORIENTED_EDGE('',*,*,#274,.F.);
#394=ORIENTED_EDGE('',*,*,#277,.F.);
#395=ORIENTED_EDGE('',*,*,#233,.F.);
#396=ORIENTED_EDGE('',*,*,#235,.F.);
#397=ORIENTED_EDGE('',*,*,#237,.F.);
#398=ORIENTED_EDGE('',*,*,#239,.T.);
#399=ORIENTED_EDGE('',*,*,#243,.F.);
#400=ORIENTED_EDGE('',*,*,#260,.F.);
#401=ORIENTED_EDGE('',*,*,#262,.F.);
#402=ORIENTED_EDGE('',*,*,#264,.F.);
#403=ORIENTED_EDGE('',*,*,#266,.F.);
#404=ORIENTED_EDGE('',*,*,#226,.F.);
#405=ORIENTED_EDGE('',*,*,#231,.T.);
#406=ORIENTED_EDGE('',*,*,#276,.T.);
#407=ORIENTED_EDGE('',*,*,#267,.T.);
#408=ORIENTED_EDGE('',*,*,#244,.F.);
#409=ORIENTED_EDGE('',*,*,#269,.T.);
#410=B_SPLINE_SURFACE_WITH_KNOTS('',3,3,((#602,#603,#604,#605),(#606,#607,
#608,#609),(#610,#611,#612,#613),(#614,#615,#616,#617),(#618,#619,#620,
#621)),.UNSPECIFIED.,.F.,.F.,.F.,(4,1,4),(4,4),(0.,0.571428571428571,1.),
(0.0170287204669274,0.0710521717244002),.UNSPECIFIED.);
#411=B_SPLINE_SURFACE_WITH_KNOTS('',3,3,((#663,#664,#665,#666,#667,#668),
(#669,#670,#671,#672,#673,#674),(#675,#676,#677,#678,#679,#680),(#681,#682,
#683,#684,#685,#686),(#687,#688,#689,#690,#691,#692)),.UNSPECIFIED.,.F.,
 .F.,.F.,(4,1,4),(4,1,1,4),(0.,0.5,1.),(0.,0.115289362894783,0.192148938157972,
0.269008513421161),.UNSPECIFIED.);
#412=B_SPLINE_SURFACE_WITH_KNOTS('',3,3,((#714,#715,#716,#717,#718,#719,
#720),(#721,#722,#723,#724,#725,#726,#727),(#728,#729,#730,#731,#732,#733,
#734),(#735,#736,#737,#738,#739,#740,#741),(#742,#743,#744,#745,#746,#747,
#748)),.UNSPECIFIED.,.F.,.F.,.F.,(4,1,4),(4,1,1,1,4),(0.,0.5,1.),(0.,0.0768594495517262,
0.115289174327589,0.192148623879315,0.269008073431042),.UNSPECIFIED.);
#413=B_SPLINE_SURFACE_WITH_KNOTS('',3,3,((#771,#772,#773,#774),(#775,#776,
#777,#778),(#779,#780,#781,#782),(#783,#784,#785,#786),(#787,#788,#789,
#790)),.UNSPECIFIED.,.F.,.F.,.F.,(4,1,4),(4,4),(0.,0.571428571428571,1.),
(0.,0.0540234512574727),.UNSPECIFIED.);
#414=B_SPLINE_SURFACE_WITH_KNOTS('',3,3,((#904,#905,#906,#907),(#908,#909,
#910,#911),(#912,#913,#914,#915),(#916,#917,#918,#919),(#920,#921,#922,
#923)),.UNSPECIFIED.,.F.,.F.,.F.,(4,1,4),(4,4),(0.,0.571428571428571,1.),
(0.0169426786045999,0.0709661298620727),.UNSPECIFIED.);
#415=B_SPLINE_SURFACE_WITH_KNOTS('',3,3,((#965,#966,#967,#968,#969,#970),
(#971,#972,#973,#974,#975,#976),(#977,#978,#979,#980,#981,#982),(#983,#984,
#985,#986,#987,#988),(#989,#990,#991,#992,#993,#994)),.UNSPECIFIED.,.F.,
 .F.,.F.,(4,1,4),(4,1,1,4),(0.,0.5,1.),(2.14435556422523E-17,0.115289362894783,
0.192148938157972,0.269008513421161),.UNSPECIFIED.);
#416=B_SPLINE_SURFACE_WITH_KNOTS('',3,3,((#1016,#1017,#1018,#1019,#1020,
#1021,#1022),(#1023,#1024,#1025,#1026,#1027,#1028,#1029),(#1030,#1031,#1032,
#1033,#1034,#1035,#1036),(#1037,#1038,#1039,#1040,#1041,#1042,#1043),(#1044,
#1045,#1046,#1047,#1048,#1049,#1050)),.UNSPECIFIED.,.F.,.F.,.F.,(4,1,4),
(4,1,1,1,4),(0.,0.5,1.),(0.,0.0768594495517262,0.115289174327589,0.192148623879315,
0.269008073431042),.UNSPECIFIED.);
#417=B_SPLINE_SURFACE_WITH_KNOTS('',3,3,((#1068,#1069,#1070,#1071),(#1072,
#1073,#1074,#1075),(#1076,#1077,#1078,#1079),(#1080,#1081,#1082,#1083),
(#1084,#1085,#1086,#1087)),.UNSPECIFIED.,.F.,.F.,.F.,(4,1,4),(4,4),(0.,
0.571428571428571,1.),(0.,0.0540234512574725),.UNSPECIFIED.);
#418=ADVANCED_FACE('',(#70),#410,.F.);
#419=ADVANCED_FACE('',(#71),#411,.F.);
#420=ADVANCED_FACE('',(#72),#67,.T.);
#421=ADVANCED_FACE('',(#73),#412,.F.);
#422=ADVANCED_FACE('',(#74),#413,.F.);
#423=ADVANCED_FACE('',(#75),#58,.T.);
#424=ADVANCED_FACE('',(#76),#17,.F.);
#425=ADVANCED_FACE('',(#77),#59,.T.);
#426=ADVANCED_FACE('',(#78),#18,.F.);
#427=ADVANCED_FACE('',(#79),#60,.T.);
#428=ADVANCED_FACE('',(#80),#61,.T.);
#429=ADVANCED_FACE('',(#81),#414,.F.);
#430=ADVANCED_FACE('',(#82),#415,.F.);
#431=ADVANCED_FACE('',(#83),#68,.T.);
#432=ADVANCED_FACE('',(#84),#416,.F.);
#433=ADVANCED_FACE('',(#85),#417,.F.);
#434=ADVANCED_FACE('',(#86),#62,.T.);
#435=ADVANCED_FACE('',(#87),#19,.F.);
#436=ADVANCED_FACE('',(#88),#63,.T.);
#437=ADVANCED_FACE('',(#89),#20,.F.);
#438=ADVANCED_FACE('',(#90),#64,.T.);
#439=ADVANCED_FACE('',(#91),#16,.F.);
#440=ADVANCED_FACE('',(#92,#15),#65,.F.);
#441=ADVANCED_FACE('',(#93),#69,.T.);
#442=ADVANCED_FACE('',(#94),#21,.T.);
#443=ADVANCED_FACE('',(#95),#66,.T.);
#444=CLOSED_SHELL('',(#418,#419,#420,#421,#422,#423,#424,#425,#426,#427,
#428,#429,#430,#431,#432,#433,#434,#435,#436,#437,#438,#439,#440,#441,#442,
#443));
#445=DERIVED_UNIT_ELEMENT(#447,1.);
#446=DERIVED_UNIT_ELEMENT(#1157,-3.);
#447=(
MASS_UNIT()
NAMED_UNIT(*)
SI_UNIT(.KILO.,.GRAM.)
);
#448=DERIVED_UNIT((#445,#446));
#449=MEASURE_REPRESENTATION_ITEM('density measure',
POSITIVE_RATIO_MEASURE(7850.),#448);
#450=PROPERTY_DEFINITION_REPRESENTATION(#455,#452);
#451=PROPERTY_DEFINITION_REPRESENTATION(#456,#453);
#452=REPRESENTATION('material name',(#454),#1154);
#453=REPRESENTATION('density',(#449),#1154);
#454=DESCRIPTIVE_REPRESENTATION_ITEM('Steel','Steel');
#455=PROPERTY_DEFINITION('material property','material name',#1164);
#456=PROPERTY_DEFINITION('material property','density of part',#1164);
#457=AXIS2_PLACEMENT_3D('',#601,#499,#500);
#458=AXIS2_PLACEMENT_3D('',#658,#501,#502);
#459=AXIS2_PLACEMENT_3D('',#695,#503,#504);
#460=AXIS2_PLACEMENT_3D('',#708,#505,#506);
#461=AXIS2_PLACEMENT_3D('',#711,#507,#508);
#462=AXIS2_PLACEMENT_3D('',#712,#509,#510);
#463=AXIS2_PLACEMENT_3D('',#713,#511,#512);
#464=AXIS2_PLACEMENT_3D('',#751,#513,#514);
#465=AXIS2_PLACEMENT_3D('',#829,#515,#516);
#466=AXIS2_PLACEMENT_3D('',#835,#520,#521);
#467=AXIS2_PLACEMENT_3D('',#848,#523,#524);
#468=AXIS2_PLACEMENT_3D('',#851,#526,#527);
#469=AXIS2_PLACEMENT_3D('',#852,#528,#529);
#470=AXIS2_PLACEMENT_3D('',#865,#531,#532);
#471=AXIS2_PLACEMENT_3D('',#869,#535,#536);
#472=AXIS2_PLACEMENT_3D('',#871,#537,#538);
#473=AXIS2_PLACEMENT_3D('',#903,#540,#541);
#474=AXIS2_PLACEMENT_3D('',#960,#542,#543);
#475=AXIS2_PLACEMENT_3D('',#997,#544,#545);
#476=AXIS2_PLACEMENT_3D('',#1010,#546,#547);
#477=AXIS2_PLACEMENT_3D('',#1013,#548,#549);
#478=AXIS2_PLACEMENT_3D('',#1014,#550,#551);
#479=AXIS2_PLACEMENT_3D('',#1015,#552,#553);
#480=AXIS2_PLACEMENT_3D('',#1053,#554,#555);
#481=AXIS2_PLACEMENT_3D('',#1096,#556,#557);
#482=AXIS2_PLACEMENT_3D('',#1100,#560,#561);
#483=AXIS2_PLACEMENT_3D('',#1113,#563,#564);
#484=AXIS2_PLACEMENT_3D('',#1116,#566,#567);
#485=AXIS2_PLACEMENT_3D('',#1117,#568,#569);
#486=AXIS2_PLACEMENT_3D('',#1130,#571,#572);
#487=AXIS2_PLACEMENT_3D('',#1134,#575,#576);
#488=AXIS2_PLACEMENT_3D('',#1135,#577,#578);
#489=AXIS2_PLACEMENT_3D('',#1138,#580,#581);
#490=AXIS2_PLACEMENT_3D('',#1139,#582,#583);
#491=AXIS2_PLACEMENT_3D('',#1141,#584,#585);
#492=AXIS2_PLACEMENT_3D('',#1142,#586,#587);
#493=AXIS2_PLACEMENT_3D('',#1145,#588,#589);
#494=AXIS2_PLACEMENT_3D('',#1146,#590,#591);
#495=AXIS2_PLACEMENT_3D('',#1147,#592,#593);
#496=AXIS2_PLACEMENT_3D('',#1148,#594,#595);
#497=AXIS2_PLACEMENT_3D('',#1149,#596,#597);
#498=AXIS2_PLACEMENT_3D('',#1151,#599,#600);
#499=DIRECTION('axis',(0.,0.,1.));
#500=DIRECTION('refdir',(1.,0.,0.));
#501=DIRECTION('center_axis',(0.,0.986386153723245,0.164445601166654));
#502=DIRECTION('ref_axis',(-1.,0.,0.));
#503=DIRECTION('center_axis',(0.984561161522083,1.36635308834188E-15,-0.175040907282518));
#504=DIRECTION('ref_axis',(-1.38777878078144E-15,1.,0.));
#505=DIRECTION('center_axis',(0.,1.,0.));
#506=DIRECTION('ref_axis',(0.,0.,1.));
#507=DIRECTION('center_axis',(0.175040907282518,-3.94680860760234E-16,-0.984561161522083));
#508=DIRECTION('ref_axis',(-5.55111512312578E-15,1.,-1.38777878078145E-15));
#509=DIRECTION('center_axis',(0.,-1.,0.));
#510=DIRECTION('ref_axis',(-0.707106781186548,0.,-0.707106781186547));
#511=DIRECTION('center_axis',(0.,1.,0.));
#512=DIRECTION('ref_axis',(-0.707106781186548,0.,-0.707106781186547));
#513=DIRECTION('center_axis',(-0.164445601166652,-0.986386153723246,6.38839955874269E-15));
#514=DIRECTION('ref_axis',(-5.55111512312578E-15,-5.55111512312578E-15,
-1.));
#515=DIRECTION('center_axis',(-2.44929359829471E-16,0.,-1.));
#516=DIRECTION('ref_axis',(-1.,0.,2.44929359829471E-16));
#517=DIRECTION('',(1.,0.,-2.44929359829471E-16));
#518=DIRECTION('',(0.,1.,0.));
#519=DIRECTION('',(-1.,0.,2.44929359829471E-16));
#520=DIRECTION('center_axis',(1.,0.,-2.44929359829471E-16));
#521=DIRECTION('ref_axis',(0.,-0.707106781186548,0.707106781186547));
#522=DIRECTION('',(-1.,0.,2.44929359829471E-16));
#523=DIRECTION('center_axis',(0.,1.,0.));
#524=DIRECTION('ref_axis',(1.,0.,0.));
#525=DIRECTION('',(0.,0.,1.));
#526=DIRECTION('center_axis',(0.,1.,0.));
#527=DIRECTION('ref_axis',(1.,0.,0.));
#528=DIRECTION('center_axis',(0.,0.,-1.));
#529=DIRECTION('ref_axis',(0.707106781186548,-0.707106781186548,0.));
#530=DIRECTION('',(0.,0.,-1.));
#531=DIRECTION('center_axis',(-1.,0.,0.));
#532=DIRECTION('ref_axis',(0.,0.,1.));
#533=DIRECTION('',(0.,0.,1.));
#534=DIRECTION('',(0.,1.,0.));
#535=DIRECTION('center_axis',(0.,1.,0.));
#536=DIRECTION('ref_axis',(1.,0.,0.));
#537=DIRECTION('center_axis',(0.,-1.,0.));
#538=DIRECTION('ref_axis',(1.,0.,0.));
#539=DIRECTION('',(1.,0.,-2.44929359829471E-16));
#540=DIRECTION('center_axis',(0.,1.,0.));
#541=DIRECTION('ref_axis',(1.,0.,0.));
#542=DIRECTION('center_axis',(0.,0.986386153723245,-0.164445601166654));
#543=DIRECTION('ref_axis',(1.,0.,0.));
#544=DIRECTION('center_axis',(-0.984561161522082,-1.36635308834188E-15,
0.175040907282521));
#545=DIRECTION('ref_axis',(-1.38777878078144E-15,1.,0.));
#546=DIRECTION('center_axis',(0.,1.,0.));
#547=DIRECTION('ref_axis',(0.,0.,1.));
#548=DIRECTION('center_axis',(-0.175040907282522,-3.94680860760213E-16,
0.984561161522082));
#549=DIRECTION('ref_axis',(5.55111512312578E-15,1.,1.38777878078145E-15));
#550=DIRECTION('center_axis',(0.,-1.,0.));
#551=DIRECTION('ref_axis',(0.707106781186548,0.,0.707106781186548));
#552=DIRECTION('center_axis',(0.,1.,0.));
#553=DIRECTION('ref_axis',(0.707106781186548,0.,0.707106781186547));
#554=DIRECTION('center_axis',(0.16444560116665,-0.986386153723246,-6.38839955874268E-15));
#555=DIRECTION('ref_axis',(5.55111512312578E-15,-5.55111512312578E-15,1.));
#556=DIRECTION('center_axis',(2.44929359829471E-16,0.,1.));
#557=DIRECTION('ref_axis',(1.,0.,-2.44929359829471E-16));
#558=DIRECTION('',(-1.,0.,2.44929359829471E-16));
#559=DIRECTION('',(0.,1.,0.));
#560=DIRECTION('center_axis',(-1.,0.,2.44929359829471E-16));
#561=DIRECTION('ref_axis',(0.,-0.707106781186548,-0.707106781186547));
#562=DIRECTION('',(1.,0.,-2.44929359829471E-16));
#563=DIRECTION('center_axis',(0.,1.,0.));
#564=DIRECTION('ref_axis',(1.,0.,0.));
#565=DIRECTION('',(0.,0.,-1.));
#566=DIRECTION('center_axis',(0.,1.,0.));
#567=DIRECTION('ref_axis',(1.,0.,0.));
#568=DIRECTION('center_axis',(0.,0.,1.));
#569=DIRECTION('ref_axis',(-0.707106781186548,-0.707106781186548,0.));
#570=DIRECTION('',(0.,0.,1.));
#571=DIRECTION('center_axis',(1.,0.,0.));
#572=DIRECTION('ref_axis',(0.,0.,-1.));
#573=DIRECTION('',(0.,0.,-1.));
#574=DIRECTION('',(0.,1.,0.));
#575=DIRECTION('center_axis',(0.,-1.,0.));
#576=DIRECTION('ref_axis',(1.,0.,0.));
#577=DIRECTION('center_axis',(0.,-1.,0.));
#578=DIRECTION('ref_axis',(1.,0.,0.));
#579=DIRECTION('',(-0.164398987305357,-0.986393923832144,2.01330693586572E-17));
#580=DIRECTION('center_axis',(0.,-1.,0.));
#581=DIRECTION('ref_axis',(1.,0.,0.));
#582=DIRECTION('center_axis',(0.,1.,0.));
#583=DIRECTION('ref_axis',(1.,0.,0.));
#584=DIRECTION('center_axis',(0.,1.,0.));
#585=DIRECTION('ref_axis',(-1.83697019872103E-16,0.,-1.));
#586=DIRECTION('center_axis',(0.,1.,0.));
#587=DIRECTION('ref_axis',(0.,0.,1.));
#588=DIRECTION('center_axis',(0.,-1.,0.));
#589=DIRECTION('ref_axis',(-1.83697019872103E-16,0.,-1.));
#590=DIRECTION('center_axis',(0.,-1.,0.));
#591=DIRECTION('ref_axis',(-1.83697019872103E-16,0.,-1.));
#592=DIRECTION('center_axis',(-1.,0.,1.22464679914735E-16));
#593=DIRECTION('ref_axis',(-1.22464679914735E-16,0.,-1.));
#594=DIRECTION('center_axis',(0.,1.,0.));
#595=DIRECTION('ref_axis',(1.,0.,0.));
#596=DIRECTION('center_axis',(0.,1.,0.));
#597=DIRECTION('ref_axis',(1.,0.,0.));
#598=DIRECTION('',(0.,-1.,0.));
#599=DIRECTION('center_axis',(0.,1.,0.));
#600=DIRECTION('ref_axis',(1.,0.,0.));
#601=CARTESIAN_POINT('',(0.,0.,0.));
#602=CARTESIAN_POINT('Ctrl Pts',(0.,3.03287979746107,-8.19483858750017));
#603=CARTESIAN_POINT('Ctrl Pts',(0.,2.85525321364054,-8.22445183352114));
#604=CARTESIAN_POINT('Ctrl Pts',(0.,2.67762661432238,-8.254064986584));
#605=CARTESIAN_POINT('Ctrl Pts',(0.,2.5,-8.28367804964777));
#606=CARTESIAN_POINT('Ctrl Pts',(0.,3.02319011646694,-8.13671780830293));
#607=CARTESIAN_POINT('Ctrl Pts',(-1.30755158513932E-7,2.84556299725903,
-8.1663277174214));
#608=CARTESIAN_POINT('Ctrl Pts',(1.28025800998254E-7,2.6679359009485,-8.19593776740725));
#609=CARTESIAN_POINT('Ctrl Pts',(0.,2.49030876244294,-8.2255475647281));
#610=CARTESIAN_POINT('Ctrl Pts',(0.0485616316453906,3.0063945964017,-8.03597468643896));
#611=CARTESIAN_POINT('Ctrl Pts',(0.0485674539454593,2.82876662242554,-8.06557925260262));
#612=CARTESIAN_POINT('Ctrl Pts',(0.0485730865742129,2.65113862792087,-8.09518370015158));
#613=CARTESIAN_POINT('Ctrl Pts',(0.0485787858537414,2.47351065256134,-8.12478826877624));
#614=CARTESIAN_POINT('Ctrl Pts',(0.151007306773814,3.00017489662193,-7.9986675967843));
#615=CARTESIAN_POINT('Ctrl Pts',(0.151022146975703,2.82254768485545,-8.02827665393862));
#616=CARTESIAN_POINT('Ctrl Pts',(0.15103672937695,2.64492048142813,-8.05788576890814));
#617=CARTESIAN_POINT('Ctrl Pts',(0.151051254144974,2.46729325235077,-8.08749473561783));
#618=CARTESIAN_POINT('Ctrl Pts',(0.195186725010914,3.,-7.99761852943609));
#619=CARTESIAN_POINT('Ctrl Pts',(0.195204108129055,2.82237341617947,-8.02723135121153));
#620=CARTESIAN_POINT('Ctrl Pts',(0.19522130293322,2.64474681686131,-8.0568440869236));
#621=CARTESIAN_POINT('Ctrl Pts',(0.195238315414351,2.46712020253893,-8.08645673924034));
#622=CARTESIAN_POINT('',(0.195186725010913,2.99999999999997,-7.9976185294361));
#623=CARTESIAN_POINT('',(0.,2.99999999999997,-8.20032018443612));
#624=CARTESIAN_POINT('Ctrl Pts',(0.195186725010914,3.,-7.99761852943609));
#625=CARTESIAN_POINT('Ctrl Pts',(0.18186969640729,3.,-7.99794353958636));
#626=CARTESIAN_POINT('Ctrl Pts',(0.168648658963135,3.0000067711597,-7.9996560736145));
#627=CARTESIAN_POINT('Ctrl Pts',(0.155716669702711,3.000010728075,-8.00265154675855));
#628=CARTESIAN_POINT('Ctrl Pts',(0.143686257358634,3.00001440912683,-8.00543818509878));
#629=CARTESIAN_POINT('Ctrl Pts',(0.131904751031675,3.00001581356504,-8.00933606654464));
#630=CARTESIAN_POINT('Ctrl Pts',(0.120535044851978,3.00001375808309,-8.014300182107));
#631=CARTESIAN_POINT('Ctrl Pts',(0.108264050458198,3.00001153966099,-8.01965780817693));
#632=CARTESIAN_POINT('Ctrl Pts',(0.0965992353334292,3.00000538340499,-8.02620158114666));
#633=CARTESIAN_POINT('Ctrl Pts',(0.0857306471657741,3.00000124789646,-8.03384629718272));
#634=CARTESIAN_POINT('Ctrl Pts',(0.0813867152568935,2.99999959502609,-8.03690171941522));
#635=CARTESIAN_POINT('Ctrl Pts',(0.0771701438125032,2.99999835669601,-8.04013355903849));
#636=CARTESIAN_POINT('Ctrl Pts',(0.0730941190947039,2.99999825704909,-8.04353843785697));
#637=CARTESIAN_POINT('Ctrl Pts',(0.0676104748632943,2.99999812298998,-8.04811916181826));
#638=CARTESIAN_POINT('Ctrl Pts',(0.0623810696810215,3.0000000370582,-8.05301299995479));
#639=CARTESIAN_POINT('Ctrl Pts',(0.0574183529198683,3.00000258160595,-8.05819264649696));
#640=CARTESIAN_POINT('Ctrl Pts',(0.048135549767845,3.00000734120379,-8.06788121861624));
#641=CARTESIAN_POINT('Ctrl Pts',(0.0398737248113818,3.00001402781317,-8.0784730482626));
#642=CARTESIAN_POINT('Ctrl Pts',(0.0326869861042812,3.00001756725724,-8.08976501401934));
#643=CARTESIAN_POINT('Ctrl Pts',(0.0258307224373824,3.00002094394349,-8.1005377299481));
#644=CARTESIAN_POINT('Ctrl Pts',(0.0199525806508831,3.00002171148568,-8.11194920328817));
#645=CARTESIAN_POINT('Ctrl Pts',(0.0151346073261689,3.00001987391833,-8.12384951642682));
#646=CARTESIAN_POINT('Ctrl Pts',(0.0100724606918107,3.00001794322368,-8.1363529335366));
#647=CARTESIAN_POINT('Ctrl Pts',(0.00622620219548415,3.00001323359209,-8.14928270391686));
#648=CARTESIAN_POINT('Ctrl Pts',(0.00367230322859392,3.00000856379342,-8.16245828297638));
#649=CARTESIAN_POINT('Ctrl Pts',(0.00125951077109233,3.00000415200769,-8.17490589276445));
#650=CARTESIAN_POINT('Ctrl Pts',(-4.25390213232873E-9,2.99999999964165,
-8.18757424186692));
#651=CARTESIAN_POINT('Ctrl Pts',(0.,3.00000000000002,-8.20032018443621));
#652=CARTESIAN_POINT('',(0.,2.5,-8.28367804964777));
#653=CARTESIAN_POINT('Ctrl Pts',(0.,2.99999999999999,-8.20032018443622));
#654=CARTESIAN_POINT('Ctrl Pts',(0.,2.83333334681482,-8.22810622037179));
#655=CARTESIAN_POINT('Ctrl Pts',(0.,2.66666668001229,-8.25589217462751));
#656=CARTESIAN_POINT('Ctrl Pts',(0.,2.5,-8.28367804964777));
#657=CARTESIAN_POINT('',(0.195238315414351,2.46712020253893,-8.08645673924034));
#658=CARTESIAN_POINT('Origin',(0.2,2.5,-8.28367804964777));
#659=CARTESIAN_POINT('Ctrl Pts',(0.195238315414351,2.46712020253893,-8.08645673924034));
#660=CARTESIAN_POINT('Ctrl Pts',(0.19522130293322,2.64474681686131,-8.0568440869236));
#661=CARTESIAN_POINT('Ctrl Pts',(0.195204108129055,2.82237341617947,-8.02723135121153));
#662=CARTESIAN_POINT('Ctrl Pts',(0.195186725010914,3.,-7.99761852943609));
#663=CARTESIAN_POINT('Ctrl Pts',(-6.93889390390723E-17,2.5,-8.28367804964777));
#664=CARTESIAN_POINT('Ctrl Pts',(-5.87225302740595E-17,2.16552990814415,
-8.34687414494562));
#665=CARTESIAN_POINT('Ctrl Pts',(-0.192389424311975,1.61043101931092,-8.46159057549251));
#666=CARTESIAN_POINT('Ctrl Pts',(-0.825378114074402,1.10241538105849,-8.52851954789084));
#667=CARTESIAN_POINT('Ctrl Pts',(-1.27743249207288,1.,-8.48196867542927));
#668=CARTESIAN_POINT('Ctrl Pts',(-1.5,1.,-8.43712344280454));
#669=CARTESIAN_POINT('Ctrl Pts',(-5.76208069280249E-17,2.49152016713757,
-8.23281387534306));
#670=CARTESIAN_POINT('Ctrl Pts',(-0.00193231531984629,2.15666754551619,
-8.29483173455381));
#671=CARTESIAN_POINT('Ctrl Pts',(-0.199016936490117,1.60316782139554,-8.40623098651681));
#672=CARTESIAN_POINT('Ctrl Pts',(-0.826503385080747,1.10394109055956,-8.46903263328983));
#673=CARTESIAN_POINT('Ctrl Pts',(-1.27034277119376,1.00154546378683,-8.42358080595063));
#674=CARTESIAN_POINT('Ctrl Pts',(-1.48987128704902,1.,-8.38015197514844));
#675=CARTESIAN_POINT('Ctrl Pts',(0.041918677725892,2.47461594502278,-8.13141809147772));
#676=CARTESIAN_POINT('Ctrl Pts',(0.0383839010783074,2.1293521715137,-8.19118194931818));
#677=CARTESIAN_POINT('Ctrl Pts',(-0.166304371891779,1.56127072902822,-8.29595608586428));
#678=CARTESIAN_POINT('Ctrl Pts',(-0.802380765837918,1.05410077292782,-8.35100797609534));
#679=CARTESIAN_POINT('Ctrl Pts',(-1.24794433001182,0.949283923915922,-8.30756264857809));
#680=CARTESIAN_POINT('Ctrl Pts',(-1.46972492597548,0.94651909491979,-8.26683375161458));
#681=CARTESIAN_POINT('Ctrl Pts',(0.143686743933411,2.46732209398608,-8.08766773501408));
#682=CARTESIAN_POINT('Ctrl Pts',(0.142482739701131,2.09946279788355,-8.14897628593539));
#683=CARTESIAN_POINT('Ctrl Pts',(-0.0675886549478013,1.49032737538644,-8.25842123702717));
#684=CARTESIAN_POINT('Ctrl Pts',(-0.745060566623953,0.937381159501423,-8.31954087697144));
#685=CARTESIAN_POINT('Ctrl Pts',(-1.22609564881574,0.825058444541237,-8.27560018811089));
#686=CARTESIAN_POINT('Ctrl Pts',(-1.46380299237504,0.824197722680896,-8.23352436174328));
#687=CARTESIAN_POINT('Ctrl Pts',(0.195238315414351,2.46712020253893,-8.08645673924034));
#688=CARTESIAN_POINT('Ctrl Pts',(0.195274621093926,2.08805409843563,-8.14965195797878));
#689=CARTESIAN_POINT('Ctrl Pts',(-0.0175419727863252,1.45894202442464,-8.26413816242932));
#690=CARTESIAN_POINT('Ctrl Pts',(-0.718422655812143,0.883190967738548,-8.33174163756583));
#691=CARTESIAN_POINT('Ctrl Pts',(-1.21903191713625,0.767120202538928,-8.2867032531684));
#692=CARTESIAN_POINT('Ctrl Pts',(-1.46546814252689,0.767120202538928,-8.24289041333124));
#693=CARTESIAN_POINT('',(-1.5,1.,-8.43712344280454));
#694=CARTESIAN_POINT('',(-1.46546814252689,0.767120202538928,-8.24289041333124));
#695=CARTESIAN_POINT('Origin',(-1.5,0.799999999999999,-8.43712344280454));
#696=CARTESIAN_POINT('Ctrl Pts',(-1.46546814252689,0.767120202538928,-8.24289041333124));
#697=CARTESIAN_POINT('Ctrl Pts',(-1.21903191713625,0.767120202538928,-8.2867032531684));
#698=CARTESIAN_POINT('Ctrl Pts',(-0.718422655812143,0.883190967738548,-8.33174163756583));
#699=CARTESIAN_POINT('Ctrl Pts',(-0.0175419727863252,1.45894202442464,-8.26413816242932));
#700=CARTESIAN_POINT('Ctrl Pts',(0.195274621093926,2.08805409843563,-8.14965195797878));
#701=CARTESIAN_POINT('Ctrl Pts',(0.195238315414351,2.46712020253893,-8.08645673924034));
#702=CARTESIAN_POINT('Ctrl Pts',(-6.93889390390723E-17,2.5,-8.28367804964777));
#703=CARTESIAN_POINT('Ctrl Pts',(-5.87225302740595E-17,2.16552990814415,
-8.34687414494562));
#704=CARTESIAN_POINT('Ctrl Pts',(-0.192389424311975,1.61043101931092,-8.46159057549251));
#705=CARTESIAN_POINT('Ctrl Pts',(-0.825378114074402,1.10241538105849,-8.52851954789084));
#706=CARTESIAN_POINT('Ctrl Pts',(-1.27743249207288,1.,-8.48196867542927));
#707=CARTESIAN_POINT('Ctrl Pts',(-1.5,1.,-8.43712344280454));
#708=CARTESIAN_POINT('Origin',(0.,0.8,0.));
#709=CARTESIAN_POINT('',(-8.43712344280454,1.,-1.5));
#710=CARTESIAN_POINT('',(-8.24289041333124,0.767120202538928,-1.46546814252689));
#711=CARTESIAN_POINT('Origin',(-8.43712344280454,0.8,-1.5));
#712=CARTESIAN_POINT('Origin',(0.,0.767120202538928,0.));
#713=CARTESIAN_POINT('Origin',(0.,1.,0.));
#714=CARTESIAN_POINT('Ctrl Pts',(-8.43712344280454,1.,-1.5));
#715=CARTESIAN_POINT('Ctrl Pts',(-8.48196860208044,1.,-1.27743285610413));
#716=CARTESIAN_POINT('Ctrl Pts',(-8.51657239327781,1.07685737894586,-0.938764299850897));
#717=CARTESIAN_POINT('Ctrl Pts',(-8.49578048391491,1.380654449765,-0.457300334587576));
#718=CARTESIAN_POINT('Ctrl Pts',(-8.41399773145636,1.83174202932499,-0.100635759573059));
#719=CARTESIAN_POINT('Ctrl Pts',(-8.32580871093734,2.27702030346879,2.29866625225663E-15));
#720=CARTESIAN_POINT('Ctrl Pts',(-8.28367804964777,2.5,2.22044604925031E-15));
#721=CARTESIAN_POINT('Ctrl Pts',(-8.38015197514844,1.,-1.48987128704902));
#722=CARTESIAN_POINT('Ctrl Pts',(-8.42358073491847,1.00154546125907,-1.27034313025444));
#723=CARTESIAN_POINT('Ctrl Pts',(-8.45735477576247,1.0784704688186,-0.937605088040197));
#724=CARTESIAN_POINT('Ctrl Pts',(-8.43843684576592,1.37746459786957,-0.462004334319972));
#725=CARTESIAN_POINT('Ctrl Pts',(-8.36016510909628,1.82339384940296,-0.105121108921117));
#726=CARTESIAN_POINT('Ctrl Pts',(-8.27415904719265,2.26828545117978,-0.00128820810623315));
#727=CARTESIAN_POINT('Ctrl Pts',(-8.23281387534306,2.49152016713757,1.96162942626421E-15));
#728=CARTESIAN_POINT('Ctrl Pts',(-8.26683375161458,0.94651909491979,-1.46972492597547));
#729=CARTESIAN_POINT('Ctrl Pts',(-8.30756258196193,0.94928391939377,-1.24794469275599));
#730=CARTESIAN_POINT('Ctrl Pts',(-8.33984185317312,1.02803547340912,-0.913771098967608));
#731=CARTESIAN_POINT('Ctrl Pts',(-8.32447958062737,1.33184988728215,-0.433343720481377));
#732=CARTESIAN_POINT('Ctrl Pts',(-8.25295214276432,1.78682033668518,-0.0689010957125273));
#733=CARTESIAN_POINT('Ctrl Pts',(-8.17126059820488,2.24444047249217,0.0395621638151562));
#734=CARTESIAN_POINT('Ctrl Pts',(-8.13141809147772,2.47461594502278,0.0419186777258939));
#735=CARTESIAN_POINT('Ctrl Pts',(-8.23352436174328,0.824197722680896,-1.46380299237504));
#736=CARTESIAN_POINT('Ctrl Pts',(-8.27560011929169,0.825058443133441,-1.2260960376097));
#737=CARTESIAN_POINT('Ctrl Pts',(-8.30824145616578,0.90939902284691,-0.865555491379263));
#738=CARTESIAN_POINT('Ctrl Pts',(-8.28973045880744,1.24024094847821,-0.351375471393995));
#739=CARTESIAN_POINT('Ctrl Pts',(-8.21324893325178,1.73290242119632,0.0325583481979253));
#740=CARTESIAN_POINT('Ctrl Pts',(-8.12854003544414,2.22208296436465,0.142884075758072));
#741=CARTESIAN_POINT('Ctrl Pts',(-8.08766773501408,2.46732209398608,0.143686743933414));
#742=CARTESIAN_POINT('Ctrl Pts',(-8.24289041333124,0.767120202538928,-1.46546814252689));
#743=CARTESIAN_POINT('Ctrl Pts',(-8.28670318150815,0.767120202538928,-1.21903232020716));
#744=CARTESIAN_POINT('Ctrl Pts',(-8.32017950148632,0.854225232010901,-0.843989598381676));
#745=CARTESIAN_POINT('Ctrl Pts',(-8.29854323735472,1.19852857893926,-0.310858105687461));
#746=CARTESIAN_POINT('Ctrl Pts',(-8.21667894717219,1.70976116910725,0.0839695710755683));
#747=CARTESIAN_POINT('Ctrl Pts',(-8.12858681615793,2.21440987980355,0.195262519161149));
#748=CARTESIAN_POINT('Ctrl Pts',(-8.08645673924034,2.46712020253893,0.195238315414354));
#749=CARTESIAN_POINT('',(-8.28367804964777,2.5,2.23345647532014E-15));
#750=CARTESIAN_POINT('',(-8.08645673924034,2.46712020253893,0.195238315414354));
#751=CARTESIAN_POINT('Origin',(-8.28367804964777,2.5,0.200000000000002));
#752=CARTESIAN_POINT('',(-8.2221460230029,1.66722440295454,-3.32645832502518E-5));
#753=CARTESIAN_POINT('Ctrl Pts',(-8.08645673924034,2.46712020253893,0.195238315414354));
#754=CARTESIAN_POINT('Ctrl Pts',(-8.12858681615793,2.21440987980355,0.195262519161149));
#755=CARTESIAN_POINT('Ctrl Pts',(-8.17694996850443,1.93735445844113,0.134161967484375));
#756=CARTESIAN_POINT('Ctrl Pts',(-8.21850108635967,1.68913253453854,0.0114025968082042));
#757=CARTESIAN_POINT('Ctrl Pts',(-8.2221460230029,1.66722440295454,-3.32645832502127E-5));
#758=CARTESIAN_POINT('Ctrl Pts',(-8.2221460230029,1.66722440295454,-3.32645832502127E-5));
#759=CARTESIAN_POINT('Ctrl Pts',(-8.25568938581495,1.46560981313115,-0.105274393653273));
#760=CARTESIAN_POINT('Ctrl Pts',(-8.29939149138204,1.18503009792252,-0.331759631617316));
#761=CARTESIAN_POINT('Ctrl Pts',(-8.32017950148632,0.854225232010901,-0.843989598381676));
#762=CARTESIAN_POINT('Ctrl Pts',(-8.28670318150815,0.767120202538928,-1.21903232020716));
#763=CARTESIAN_POINT('Ctrl Pts',(-8.24289041333124,0.767120202538928,-1.46546814252689));
#764=CARTESIAN_POINT('Ctrl Pts',(-8.43712344280454,1.,-1.5));
#765=CARTESIAN_POINT('Ctrl Pts',(-8.48196860208044,1.,-1.27743285610413));
#766=CARTESIAN_POINT('Ctrl Pts',(-8.51657239327781,1.07685737894586,-0.938764299850897));
#767=CARTESIAN_POINT('Ctrl Pts',(-8.49578048391491,1.380654449765,-0.457300334587576));
#768=CARTESIAN_POINT('Ctrl Pts',(-8.41399773145636,1.83174202932499,-0.100635759573059));
#769=CARTESIAN_POINT('Ctrl Pts',(-8.32580871093734,2.27702030346879,2.29866625225663E-15));
#770=CARTESIAN_POINT('Ctrl Pts',(-8.28367804964777,2.5,2.22044604925031E-15));
#771=CARTESIAN_POINT('Ctrl Pts',(-8.28367804964777,2.5,2.0122792321331E-15));
#772=CARTESIAN_POINT('Ctrl Pts',(-8.254064986584,2.67762661432238,2.0050261235543E-15));
#773=CARTESIAN_POINT('Ctrl Pts',(-8.22445183352114,2.85525321364054,2.01953238552348E-15));
#774=CARTESIAN_POINT('Ctrl Pts',(-8.19483858750017,3.03287979746107,2.0122792321331E-15));
#775=CARTESIAN_POINT('Ctrl Pts',(-8.2255475647281,2.49030876244294,2.0122792321331E-15));
#776=CARTESIAN_POINT('Ctrl Pts',(-8.19593776740725,2.66793590094851,1.28025803003283E-7));
#777=CARTESIAN_POINT('Ctrl Pts',(-8.1663277174214,2.84556299725903,-1.30755156494431E-7));
#778=CARTESIAN_POINT('Ctrl Pts',(-8.13671780830293,3.02319011646694,2.0122792321331E-15));
#779=CARTESIAN_POINT('Ctrl Pts',(-8.12478826877624,2.47351065256134,0.0485787858537434));
#780=CARTESIAN_POINT('Ctrl Pts',(-8.09518370015158,2.65113862792087,0.0485730865742149));
#781=CARTESIAN_POINT('Ctrl Pts',(-8.06557925260262,2.82876662242554,0.0485674539454614));
#782=CARTESIAN_POINT('Ctrl Pts',(-8.03597468643897,3.0063945964017,0.0485616316453927));
#783=CARTESIAN_POINT('Ctrl Pts',(-8.08749473561783,2.46729325235077,0.151051254144976));
#784=CARTESIAN_POINT('Ctrl Pts',(-8.05788576890814,2.64492048142813,0.151036729376953));
#785=CARTESIAN_POINT('Ctrl Pts',(-8.02827665393862,2.82254768485545,0.151022146975705));
#786=CARTESIAN_POINT('Ctrl Pts',(-7.99866759678431,3.00017489662193,0.151007306773816));
#787=CARTESIAN_POINT('Ctrl Pts',(-8.08645673924034,2.46712020253893,0.195238315414353));
#788=CARTESIAN_POINT('Ctrl Pts',(-8.0568440869236,2.64474681686131,0.195221302933222));
#789=CARTESIAN_POINT('Ctrl Pts',(-8.02723135121153,2.82237341617947,0.195204108129057));
#790=CARTESIAN_POINT('Ctrl Pts',(-7.99761852943609,3.,0.195186725010916));
#791=CARTESIAN_POINT('',(-8.20032018443612,2.99999999999997,2.00849917317063E-15));
#792=CARTESIAN_POINT('',(-7.9976185294361,2.99999999999997,0.195186725010916));
#793=CARTESIAN_POINT('Ctrl Pts',(-8.20032018443621,3.00000000000002,2.01338353539581E-15));
#794=CARTESIAN_POINT('Ctrl Pts',(-8.18682448364919,2.99999999962057,-4.50412861829404E-9));
#795=CARTESIAN_POINT('Ctrl Pts',(-8.17341691155563,3.00000464942866,0.00141153931960765));
#796=CARTESIAN_POINT('Ctrl Pts',(-8.1602673376101,3.00000934641637,0.00410939159923857));
#797=CARTESIAN_POINT('Ctrl Pts',(-8.14735830823972,3.0000139574823,0.00675789218632737));
#798=CARTESIAN_POINT('Ctrl Pts',(-8.13469652321905,3.0000183804423,0.0106469323846254));
#799=CARTESIAN_POINT('Ctrl Pts',(-8.12245360542486,3.0000200785564,0.0157055611229338));
#800=CARTESIAN_POINT('Ctrl Pts',(-8.11002300805609,3.00002180270198,0.0208417368402799));
#801=CARTESIAN_POINT('Ctrl Pts',(-8.09813804496086,3.00002057832326,0.0271363643707436));
#802=CARTESIAN_POINT('Ctrl Pts',(-8.08697158657674,3.00001663615308,0.0344963341144764));
#803=CARTESIAN_POINT('Ctrl Pts',(-8.0760970654679,3.00001279704748,0.041663883894848));
#804=CARTESIAN_POINT('Ctrl Pts',(-8.06590268738098,3.00000616643035,0.0498426570672294));
#805=CARTESIAN_POINT('Ctrl Pts',(-8.05657720059954,3.00000180637317,0.0589839015775897));
#806=CARTESIAN_POINT('Ctrl Pts',(-8.0519922454241,2.99999966271384,0.0634782724678229));
#807=CARTESIAN_POINT('Ctrl Pts',(-8.04763949903582,2.99999813070262,0.06818468668105));
#808=CARTESIAN_POINT('Ctrl Pts',(-8.04353843911529,2.99999824949979,0.073094119095032));
#809=CARTESIAN_POINT('Ctrl Pts',(-8.0350178147568,2.99999849632039,0.0832942698423081));
#810=CARTESIAN_POINT('Ctrl Pts',(-8.02758062431498,3.00000536603065,0.0943691152344188));
#811=CARTESIAN_POINT('Ctrl Pts',(-8.02129083336083,3.00000971922864,0.106118996719852));
#812=CARTESIAN_POINT('Ctrl Pts',(-8.01830571493127,3.00001178524508,0.11169545991601));
#813=CARTESIAN_POINT('Ctrl Pts',(-8.01557968361467,3.00001339176137,0.117424384790706));
#814=CARTESIAN_POINT('Ctrl Pts',(-8.01312337896423,3.00001419557694,0.123285833890683));
#815=CARTESIAN_POINT('Ctrl Pts',(-8.00797125567394,3.00001588158803,0.13558028133121));
#816=CARTESIAN_POINT('Ctrl Pts',(-8.00405485083367,3.0000133338402,0.148332249552806));
#817=CARTESIAN_POINT('Ctrl Pts',(-8.00143371705451,3.0000088971185,0.161341096376758));
#818=CARTESIAN_POINT('Ctrl Pts',(-7.99919055673256,3.00000510018216,0.172474037877881));
#819=CARTESIAN_POINT('Ctrl Pts',(-7.99789652082496,3.,0.183796252208731));
#820=CARTESIAN_POINT('Ctrl Pts',(-7.99761852943609,3.,0.195186725010916));
#821=CARTESIAN_POINT('Ctrl Pts',(-7.99761852943609,3.,0.195186725010916));
#822=CARTESIAN_POINT('Ctrl Pts',(-8.02723135121153,2.82237341617947,0.195204108129057));
#823=CARTESIAN_POINT('Ctrl Pts',(-8.0568440869236,2.64474681686131,0.195221302933222));
#824=CARTESIAN_POINT('Ctrl Pts',(-8.08645673924034,2.46712020253893,0.195238315414353));
#825=CARTESIAN_POINT('Ctrl Pts',(-8.28367804964777,2.5,2.0122792321331E-15));
#826=CARTESIAN_POINT('Ctrl Pts',(-8.25589217462751,2.66666668001229,2.00547365555208E-15));
#827=CARTESIAN_POINT('Ctrl Pts',(-8.22810622037179,2.83333334681482,2.01782509315913E-15));
#828=CARTESIAN_POINT('Ctrl Pts',(-8.20032018443622,2.99999999999999,2.01338353539581E-15));
#829=CARTESIAN_POINT('Origin',(-8.,0.,1.95943487863577E-15));
#830=CARTESIAN_POINT('',(-10.,2.5,2.44929359829471E-15));
#831=CARTESIAN_POINT('',(-4.,2.5,8.32667268468867E-16));
#832=CARTESIAN_POINT('',(-10.,3.,2.22044604925031E-15));
#833=CARTESIAN_POINT('',(-10.,0.,2.44929359829471E-15));
#834=CARTESIAN_POINT('',(-10.,3.,2.44929359829471E-15));
#835=CARTESIAN_POINT('Origin',(-4.,2.5,-1.5));
#836=CARTESIAN_POINT('',(-9.88685996664259,1.,-1.5));
#837=CARTESIAN_POINT('',(-4.,1.,-1.5));
#838=CARTESIAN_POINT('Ctrl Pts',(-9.88685996664259,1.,-1.5));
#839=CARTESIAN_POINT('Ctrl Pts',(-9.91524618568779,1.,-1.3128996182118));
#840=CARTESIAN_POINT('Ctrl Pts',(-9.93967522053196,1.03719829991221,-1.11236887961371));
#841=CARTESIAN_POINT('Ctrl Pts',(-9.97413082947995,1.18997911449185,-0.74244340266966));
#842=CARTESIAN_POINT('Ctrl Pts',(-9.98446254679679,1.30559055808949,-0.573089098350865));
#843=CARTESIAN_POINT('Ctrl Pts',(-9.99619914865761,1.57247438405659,-0.30620527238377));
#844=CARTESIAN_POINT('Ctrl Pts',(-9.99847353954562,1.74112831787635,-0.190755640905117));
#845=CARTESIAN_POINT('Ctrl Pts',(-10.0002221498882,2.11070621620091,-0.0376534688546865));
#846=CARTESIAN_POINT('Ctrl Pts',(-10.,2.31162829719797,2.57979918360198E-15));
#847=CARTESIAN_POINT('Ctrl Pts',(-10.,2.5,2.57979918360198E-15));
#848=CARTESIAN_POINT('Origin',(0.,1.,0.));
#849=CARTESIAN_POINT('',(-1.5,1.,-9.88685996664259));
#850=CARTESIAN_POINT('',(-1.5,1.,-5.));
#851=CARTESIAN_POINT('Origin',(0.,1.,0.));
#852=CARTESIAN_POINT('Origin',(-1.5,2.5,-5.));
#853=CARTESIAN_POINT('',(0.,2.5,-10.));
#854=CARTESIAN_POINT('',(0.,2.5,-5.));
#855=CARTESIAN_POINT('Ctrl Pts',(2.77555756156289E-16,2.5,-10.));
#856=CARTESIAN_POINT('Ctrl Pts',(2.56642295992423E-16,2.31162829719797,
-10.));
#857=CARTESIAN_POINT('Ctrl Pts',(-0.0376534688546891,2.11070621620091,-10.0002221498882));
#858=CARTESIAN_POINT('Ctrl Pts',(-0.190755640905119,1.74112831787635,-9.99847353954562));
#859=CARTESIAN_POINT('Ctrl Pts',(-0.306205272383772,1.57247438405659,-9.99619914865761));
#860=CARTESIAN_POINT('Ctrl Pts',(-0.573089098350868,1.30559055808949,-9.98446254679679));
#861=CARTESIAN_POINT('Ctrl Pts',(-0.742443402669662,1.18997911449185,-9.97413082947995));
#862=CARTESIAN_POINT('Ctrl Pts',(-1.11236887961372,1.03719829991221,-9.93967522053195));
#863=CARTESIAN_POINT('Ctrl Pts',(-1.3128996182118,1.,-9.91524618568779));
#864=CARTESIAN_POINT('Ctrl Pts',(-1.5,1.,-9.8868599666426));
#865=CARTESIAN_POINT('Origin',(0.,0.,-10.));
#866=CARTESIAN_POINT('',(0.,3.,-10.));
#867=CARTESIAN_POINT('',(0.,3.,10.));
#868=CARTESIAN_POINT('',(0.,0.,-10.));
#869=CARTESIAN_POINT('Origin',(5.,3.,-5.));
#870=CARTESIAN_POINT('',(7.9976185294361,2.99999999999997,-0.195186725010915));
#871=CARTESIAN_POINT('Origin',(0.,3.,0.));
#872=CARTESIAN_POINT('',(8.20032018443612,2.99999999999997,-2.00849917317062E-15));
#873=CARTESIAN_POINT('Ctrl Pts',(8.20032018443621,3.00000000000002,-2.01338353539581E-15));
#874=CARTESIAN_POINT('Ctrl Pts',(8.18682448364975,2.99999999962057,4.50412861810695E-9));
#875=CARTESIAN_POINT('Ctrl Pts',(8.17341691155659,3.00000464942866,-0.00141153931949193));
#876=CARTESIAN_POINT('Ctrl Pts',(8.1602673376113,3.00000934641637,-0.00410939159899184));
#877=CARTESIAN_POINT('Ctrl Pts',(8.14735830830413,3.00001395748227,-0.00675789217303271));
#878=CARTESIAN_POINT('Ctrl Pts',(8.13469652334411,3.00001838044226,-0.0106469323461984));
#879=CARTESIAN_POINT('Ctrl Pts',(8.12245360560548,3.00002007855637,-0.0157055610483042));
#880=CARTESIAN_POINT('Ctrl Pts',(8.11002300823037,3.00002180270198,-0.0208417367548225));
#881=CARTESIAN_POINT('Ctrl Pts',(8.09813804512727,3.0000205783233,-0.0271363642755554));
#882=CARTESIAN_POINT('Ctrl Pts',(8.086971586734,3.00001663615313,-0.0344963340108262));
#883=CARTESIAN_POINT('Ctrl Pts',(8.07609706580717,3.00001279704762,-0.0416638836571145));
#884=CARTESIAN_POINT('Ctrl Pts',(8.06590268787727,3.00000616643068,-0.0498426566611974));
#885=CARTESIAN_POINT('Ctrl Pts',(8.05657720121786,3.00000180637346,-0.0589839009714915));
#886=CARTESIAN_POINT('Ctrl Pts',(8.05199224581578,2.99999966271398,-0.0634782720443287));
#887=CARTESIAN_POINT('Ctrl Pts',(8.04763949922049,2.99999813070262,-0.0681846864599768));
#888=CARTESIAN_POINT('Ctrl Pts',(8.04353843911529,2.99999824949979,-0.0730941190950319));
#889=CARTESIAN_POINT('Ctrl Pts',(8.0350178147576,2.9999984963204,-0.083294269841358));
#890=CARTESIAN_POINT('Ctrl Pts',(8.02758062431497,3.00000536603065,-0.0943691152340543));
#891=CARTESIAN_POINT('Ctrl Pts',(8.02129083335953,3.00000971922863,-0.106118996722292));
#892=CARTESIAN_POINT('Ctrl Pts',(8.01830571518301,3.0000117852449,-0.111695459445912));
#893=CARTESIAN_POINT('Ctrl Pts',(8.01557968407537,3.0000133917611,-0.117424383822657));
#894=CARTESIAN_POINT('Ctrl Pts',(8.01312337958708,3.00001419557673,-0.12328583240437));
#895=CARTESIAN_POINT('Ctrl Pts',(8.00797125619746,3.00001588158811,-0.135580279806524));
#896=CARTESIAN_POINT('Ctrl Pts',(8.00405485125556,3.00001333384064,-0.148332247999475));
#897=CARTESIAN_POINT('Ctrl Pts',(8.00143371737141,3.00000889711903,-0.161341094803976));
#898=CARTESIAN_POINT('Ctrl Pts',(7.99919055685441,3.00000510018261,-0.17247403681051));
#899=CARTESIAN_POINT('Ctrl Pts',(7.99789652083807,3.,-0.183796251671296));
#900=CARTESIAN_POINT('Ctrl Pts',(7.99761852943609,3.,-0.195186725010915));
#901=CARTESIAN_POINT('',(10.,3.,-2.44929359829471E-15));
#902=CARTESIAN_POINT('',(-10.,3.,2.44929359829471E-15));
#903=CARTESIAN_POINT('Origin',(0.,3.,0.));
#904=CARTESIAN_POINT('Ctrl Pts',(0.,3.03287979746107,8.19483858750017));
#905=CARTESIAN_POINT('Ctrl Pts',(0.,2.85525321364054,8.22445183352114));
#906=CARTESIAN_POINT('Ctrl Pts',(0.,2.67762661432238,8.254064986584));
#907=CARTESIAN_POINT('Ctrl Pts',(0.,2.5,8.28367804964777));
#908=CARTESIAN_POINT('Ctrl Pts',(0.,3.02319011646694,8.13671780830292));
#909=CARTESIAN_POINT('Ctrl Pts',(1.30755158513942E-7,2.84556299725903,8.16632771742139));
#910=CARTESIAN_POINT('Ctrl Pts',(-1.28025800998272E-7,2.6679359009485,8.19593776740725));
#911=CARTESIAN_POINT('Ctrl Pts',(0.,2.49030876244294,8.2255475647281));
#912=CARTESIAN_POINT('Ctrl Pts',(-0.0485616316453907,3.0063945964017,8.03597468643896));
#913=CARTESIAN_POINT('Ctrl Pts',(-0.0485674539454594,2.82876662242554,8.06557925260262));
#914=CARTESIAN_POINT('Ctrl Pts',(-0.0485730865742129,2.65113862792087,8.09518370015158));
#915=CARTESIAN_POINT('Ctrl Pts',(-0.0485787858537414,2.47351065256134,8.12478826877624));
#916=CARTESIAN_POINT('Ctrl Pts',(-0.151007306773814,3.00017489662193,7.9986675967843));
#917=CARTESIAN_POINT('Ctrl Pts',(-0.151022146975703,2.82254768485545,8.02827665393862));
#918=CARTESIAN_POINT('Ctrl Pts',(-0.151036729376951,2.64492048142813,8.05788576890814));
#919=CARTESIAN_POINT('Ctrl Pts',(-0.151051254144974,2.46729325235077,8.08749473561783));
#920=CARTESIAN_POINT('Ctrl Pts',(-0.195186725010914,3.,7.99761852943609));
#921=CARTESIAN_POINT('Ctrl Pts',(-0.195204108129055,2.82237341617947,8.02723135121153));
#922=CARTESIAN_POINT('Ctrl Pts',(-0.19522130293322,2.64474681686131,8.0568440869236));
#923=CARTESIAN_POINT('Ctrl Pts',(-0.195238315414351,2.46712020253893,8.08645673924034));
#924=CARTESIAN_POINT('',(-0.195186725010914,2.99999999999997,7.9976185294361));
#925=CARTESIAN_POINT('',(0.,2.99999999999997,8.20032018443612));
#926=CARTESIAN_POINT('Ctrl Pts',(-0.195186725010914,3.,7.99761852943609));
#927=CARTESIAN_POINT('Ctrl Pts',(-0.181869696406814,3.,7.99794353958637));
#928=CARTESIAN_POINT('Ctrl Pts',(-0.168648658962345,3.0000067711597,7.99965607361462));
#929=CARTESIAN_POINT('Ctrl Pts',(-0.155716669701774,3.000010728075,8.00265154675877));
#930=CARTESIAN_POINT('Ctrl Pts',(-0.143686257301728,3.00001440912685,8.00543818511202));
#931=CARTESIAN_POINT('Ctrl Pts',(-0.13190475092124,3.00001581356505,8.00933606658119));
#932=CARTESIAN_POINT('Ctrl Pts',(-0.120535044692742,3.00001375808307,8.01430018217652));
#933=CARTESIAN_POINT('Ctrl Pts',(-0.108264050302599,3.00001153966094,8.01965780825746));
#934=CARTESIAN_POINT('Ctrl Pts',(-0.0965992351831623,3.00000538340491,8.02620158123771));
#935=CARTESIAN_POINT('Ctrl Pts',(-0.0857306470224103,3.00000124789641,8.03384629728355));
#936=CARTESIAN_POINT('Ctrl Pts',(-0.0813867151640148,2.99999959502606,8.0369017194864));
#937=CARTESIAN_POINT('Ctrl Pts',(-0.0771701437675628,2.99999835669601,8.04013355907603));
#938=CARTESIAN_POINT('Ctrl Pts',(-0.073094119094704,2.99999825704909,8.04353843785697));
#939=CARTESIAN_POINT('Ctrl Pts',(-0.0676104746611146,2.99999812298997,8.04811916198715));
#940=CARTESIAN_POINT('Ctrl Pts',(-0.0623810692955694,3.00000003705833,8.05301300031549));
#941=CARTESIAN_POINT('Ctrl Pts',(-0.0574183523714352,3.00000258160623,8.05819264706936));
#942=CARTESIAN_POINT('Ctrl Pts',(-0.0481355492540758,3.00000734120416,8.06788121923028));
#943=CARTESIAN_POINT('Ctrl Pts',(-0.0398737243354745,3.00001402781349,8.07847304891364));
#944=CARTESIAN_POINT('Ctrl Pts',(-0.0326869856694222,3.00001756725746,8.0897650147026));
#945=CARTESIAN_POINT('Ctrl Pts',(-0.0258307219166157,3.00002094394368,8.1005377308586));
#946=CARTESIAN_POINT('Ctrl Pts',(-0.0199525800826724,3.00002171148569,8.11194920444482));
#947=CARTESIAN_POINT('Ctrl Pts',(-0.0151346067539011,3.00001987391812,8.12384951784031));
#948=CARTESIAN_POINT('Ctrl Pts',(-0.0100724602114266,3.00001794322326,8.13635293498246));
#949=CARTESIAN_POINT('Ctrl Pts',(-0.00622620180946007,3.00001323359153,
8.1492827053868));
#950=CARTESIAN_POINT('Ctrl Pts',(-0.00367230294047719,3.00000856379289,
8.16245828446277));
#951=CARTESIAN_POINT('Ctrl Pts',(-0.00125951067092098,3.00000415200737,
8.17490589377398));
#952=CARTESIAN_POINT('Ctrl Pts',(4.25390196266061E-9,2.99999999964165,8.18757424237529));
#953=CARTESIAN_POINT('Ctrl Pts',(0.,3.00000000000002,8.20032018443621));
#954=CARTESIAN_POINT('',(0.,2.5,8.28367804964777));
#955=CARTESIAN_POINT('Ctrl Pts',(0.,2.99999999999999,8.20032018443622));
#956=CARTESIAN_POINT('Ctrl Pts',(0.,2.83333334681481,8.22810622037179));
#957=CARTESIAN_POINT('Ctrl Pts',(0.,2.66666668001229,8.25589217462751));
#958=CARTESIAN_POINT('Ctrl Pts',(0.,2.5,8.28367804964777));
#959=CARTESIAN_POINT('',(-0.195238315414351,2.46712020253893,8.08645673924034));
#960=CARTESIAN_POINT('Origin',(-0.2,2.5,8.28367804964777));
#961=CARTESIAN_POINT('Ctrl Pts',(-0.195238315414351,2.46712020253893,8.08645673924034));
#962=CARTESIAN_POINT('Ctrl Pts',(-0.19522130293322,2.64474681686131,8.0568440869236));
#963=CARTESIAN_POINT('Ctrl Pts',(-0.195204108129055,2.82237341617947,8.02723135121153));
#964=CARTESIAN_POINT('Ctrl Pts',(-0.195186725010914,3.,7.99761852943609));
#965=CARTESIAN_POINT('Ctrl Pts',(6.93889390390723E-17,2.5,8.28367804964777));
#966=CARTESIAN_POINT('Ctrl Pts',(1.01388165334111E-16,2.16552990814415,
8.34687414494562));
#967=CARTESIAN_POINT('Ctrl Pts',(0.192389424311976,1.61043101931093,8.4615905754925));
#968=CARTESIAN_POINT('Ctrl Pts',(0.825378114074403,1.10241538105849,8.52851954789083));
#969=CARTESIAN_POINT('Ctrl Pts',(1.27743249207289,1.,8.48196867542926));
#970=CARTESIAN_POINT('Ctrl Pts',(1.5,1.,8.43712344280454));
#971=CARTESIAN_POINT('Ctrl Pts',(6.93889390390723E-17,2.49152016713757,
8.23281387534306));
#972=CARTESIAN_POINT('Ctrl Pts',(0.00193231531984633,2.15666754551619,8.29483173455381));
#973=CARTESIAN_POINT('Ctrl Pts',(0.199016936490119,1.60316782139555,8.40623098651681));
#974=CARTESIAN_POINT('Ctrl Pts',(0.826503385080749,1.10394109055956,8.46903263328983));
#975=CARTESIAN_POINT('Ctrl Pts',(1.27034277119377,1.00154546378683,8.42358080595063));
#976=CARTESIAN_POINT('Ctrl Pts',(1.48987128704902,1.,8.38015197514844));
#977=CARTESIAN_POINT('Ctrl Pts',(-0.041918677725892,2.47461594502278,8.13141809147772));
#978=CARTESIAN_POINT('Ctrl Pts',(-0.0383839010783072,2.1293521715137,8.19118194931818));
#979=CARTESIAN_POINT('Ctrl Pts',(0.166304371891781,1.56127072902822,8.29595608586428));
#980=CARTESIAN_POINT('Ctrl Pts',(0.802380765837917,1.05410077292782,8.35100797609534));
#981=CARTESIAN_POINT('Ctrl Pts',(1.24794433001182,0.949283923915922,8.30756264857809));
#982=CARTESIAN_POINT('Ctrl Pts',(1.46972492597548,0.94651909491979,8.26683375161458));
#983=CARTESIAN_POINT('Ctrl Pts',(-0.143686743933411,2.46732209398608,8.08766773501408));
#984=CARTESIAN_POINT('Ctrl Pts',(-0.142482739701131,2.09946279788355,8.14897628593539));
#985=CARTESIAN_POINT('Ctrl Pts',(0.0675886549478029,1.49032737538644,8.25842123702717));
#986=CARTESIAN_POINT('Ctrl Pts',(0.745060566623956,0.937381159501422,8.31954087697144));
#987=CARTESIAN_POINT('Ctrl Pts',(1.22609564881574,0.825058444541237,8.27560018811088));
#988=CARTESIAN_POINT('Ctrl Pts',(1.46380299237504,0.824197722680896,8.23352436174328));
#989=CARTESIAN_POINT('Ctrl Pts',(-0.195238315414351,2.46712020253893,8.08645673924034));
#990=CARTESIAN_POINT('Ctrl Pts',(-0.195274621093926,2.08805409843563,8.14965195797877));
#991=CARTESIAN_POINT('Ctrl Pts',(0.017541972786327,1.45894202442465,8.26413816242932));
#992=CARTESIAN_POINT('Ctrl Pts',(0.718422655812144,0.883190967738547,8.33174163756583));
#993=CARTESIAN_POINT('Ctrl Pts',(1.21903191713625,0.767120202538927,8.2867032531684));
#994=CARTESIAN_POINT('Ctrl Pts',(1.46546814252689,0.767120202538928,8.24289041333124));
#995=CARTESIAN_POINT('',(1.5,1.,8.43712344280454));
#996=CARTESIAN_POINT('',(1.46546814252689,0.767120202538928,8.24289041333124));
#997=CARTESIAN_POINT('Origin',(1.5,0.799999999999999,8.43712344280454));
#998=CARTESIAN_POINT('Ctrl Pts',(1.46546814252689,0.767120202538928,8.24289041333124));
#999=CARTESIAN_POINT('Ctrl Pts',(1.21903191713625,0.767120202538927,8.2867032531684));
#1000=CARTESIAN_POINT('Ctrl Pts',(0.718422655812144,0.883190967738547,8.33174163756583));
#1001=CARTESIAN_POINT('Ctrl Pts',(0.017541972786327,1.45894202442465,8.26413816242932));
#1002=CARTESIAN_POINT('Ctrl Pts',(-0.195274621093926,2.08805409843563,8.14965195797877));
#1003=CARTESIAN_POINT('Ctrl Pts',(-0.195238315414351,2.46712020253893,8.08645673924034));
#1004=CARTESIAN_POINT('Ctrl Pts',(6.93889390390723E-17,2.5,8.28367804964777));
#1005=CARTESIAN_POINT('Ctrl Pts',(1.01388165334111E-16,2.16552990814415,
8.34687414494562));
#1006=CARTESIAN_POINT('Ctrl Pts',(0.192389424311976,1.61043101931093,8.4615905754925));
#1007=CARTESIAN_POINT('Ctrl Pts',(0.825378114074403,1.10241538105849,8.52851954789083));
#1008=CARTESIAN_POINT('Ctrl Pts',(1.27743249207289,1.,8.48196867542926));
#1009=CARTESIAN_POINT('Ctrl Pts',(1.5,1.,8.43712344280454));
#1010=CARTESIAN_POINT('Origin',(0.,0.8,0.));
#1011=CARTESIAN_POINT('',(8.43712344280454,1.,1.5));
#1012=CARTESIAN_POINT('',(8.24289041333124,0.767120202538928,1.46546814252689));
#1013=CARTESIAN_POINT('Origin',(8.43712344280454,0.8,1.5));
#1014=CARTESIAN_POINT('Origin',(5.55111512312578E-16,0.767120202538928,
-5.55111512312578E-16));
#1015=CARTESIAN_POINT('Origin',(0.,1.,0.));
#1016=CARTESIAN_POINT('Ctrl Pts',(8.43712344280454,1.,1.5));
#1017=CARTESIAN_POINT('Ctrl Pts',(8.48196860208044,1.,1.27743285610413));
#1018=CARTESIAN_POINT('Ctrl Pts',(8.51657239327781,1.07685737894586,0.938764299850901));
#1019=CARTESIAN_POINT('Ctrl Pts',(8.4957804839149,1.380654449765,0.457300334587577));
#1020=CARTESIAN_POINT('Ctrl Pts',(8.41399773145637,1.83174202932499,0.10063575957306));
#1021=CARTESIAN_POINT('Ctrl Pts',(8.32580871093734,2.27702030346879,-2.29511078848361E-15));
#1022=CARTESIAN_POINT('Ctrl Pts',(8.28367804964777,2.5,-2.22044604925031E-15));
#1023=CARTESIAN_POINT('Ctrl Pts',(8.38015197514844,1.,1.48987128704902));
#1024=CARTESIAN_POINT('Ctrl Pts',(8.42358073491847,1.00154546125907,1.27034313025444));
#1025=CARTESIAN_POINT('Ctrl Pts',(8.45735477576247,1.0784704688186,0.937605088040198));
#1026=CARTESIAN_POINT('Ctrl Pts',(8.43843684576592,1.37746459786957,0.462004334319972));
#1027=CARTESIAN_POINT('Ctrl Pts',(8.36016510909628,1.82339384940296,0.105121108921117));
#1028=CARTESIAN_POINT('Ctrl Pts',(8.27415904719265,2.26828545117978,0.00128820810623318));
#1029=CARTESIAN_POINT('Ctrl Pts',(8.23281387534306,2.49152016713758,-1.93809316204211E-15));
#1030=CARTESIAN_POINT('Ctrl Pts',(8.26683375161458,0.94651909491979,1.46972492597548));
#1031=CARTESIAN_POINT('Ctrl Pts',(8.30756258196193,0.94928391939377,1.24794469275599));
#1032=CARTESIAN_POINT('Ctrl Pts',(8.33984185317312,1.02803547340912,0.913771098967613));
#1033=CARTESIAN_POINT('Ctrl Pts',(8.32447958062737,1.33184988728215,0.433343720481377));
#1034=CARTESIAN_POINT('Ctrl Pts',(8.25295214276432,1.78682033668518,0.0689010957125292));
#1035=CARTESIAN_POINT('Ctrl Pts',(8.17126059820488,2.24444047249217,-0.039562163815156));
#1036=CARTESIAN_POINT('Ctrl Pts',(8.13141809147772,2.47461594502278,-0.0419186777258938));
#1037=CARTESIAN_POINT('Ctrl Pts',(8.23352436174328,0.824197722680896,1.46380299237504));
#1038=CARTESIAN_POINT('Ctrl Pts',(8.2756001192917,0.825058443133441,1.2260960376097));
#1039=CARTESIAN_POINT('Ctrl Pts',(8.30824145616579,0.909399022846909,0.865555491379265));
#1040=CARTESIAN_POINT('Ctrl Pts',(8.28973045880744,1.24024094847821,0.351375471393995));
#1041=CARTESIAN_POINT('Ctrl Pts',(8.21324893325178,1.73290242119632,-0.0325583481979246));
#1042=CARTESIAN_POINT('Ctrl Pts',(8.12854003544414,2.22208296436465,-0.142884075758072));
#1043=CARTESIAN_POINT('Ctrl Pts',(8.08766773501408,2.46732209398608,-0.143686743933413));
#1044=CARTESIAN_POINT('Ctrl Pts',(8.24289041333124,0.767120202538928,1.46546814252689));
#1045=CARTESIAN_POINT('Ctrl Pts',(8.28670318150816,0.767120202538928,1.21903232020716));
#1046=CARTESIAN_POINT('Ctrl Pts',(8.32017950148632,0.8542252320109,0.843989598381679));
#1047=CARTESIAN_POINT('Ctrl Pts',(8.29854323735472,1.19852857893926,0.31085810568746));
#1048=CARTESIAN_POINT('Ctrl Pts',(8.21667894717219,1.70976116910725,-0.0839695710755672));
#1049=CARTESIAN_POINT('Ctrl Pts',(8.12858681615793,2.21440987980355,-0.195262519161149));
#1050=CARTESIAN_POINT('Ctrl Pts',(8.08645673924034,2.46712020253893,-0.195238315414353));
#1051=CARTESIAN_POINT('',(8.28367804964777,2.5,-2.23345647532014E-15));
#1052=CARTESIAN_POINT('',(8.08645673924034,2.46712020253893,-0.195238315414353));
#1053=CARTESIAN_POINT('Origin',(8.28367804964777,2.5,-0.200000000000002));
#1054=CARTESIAN_POINT('Ctrl Pts',(8.08645673924034,2.46712020253893,-0.195238315414353));
#1055=CARTESIAN_POINT('Ctrl Pts',(8.12858681615793,2.21440987980355,-0.195262519161149));
#1056=CARTESIAN_POINT('Ctrl Pts',(8.21667894717219,1.70976116910725,-0.0839695710755672));
#1057=CARTESIAN_POINT('Ctrl Pts',(8.29854323735472,1.19852857893926,0.31085810568746));
#1058=CARTESIAN_POINT('Ctrl Pts',(8.32017950148632,0.8542252320109,0.843989598381679));
#1059=CARTESIAN_POINT('Ctrl Pts',(8.28670318150816,0.767120202538928,1.21903232020716));
#1060=CARTESIAN_POINT('Ctrl Pts',(8.24289041333124,0.767120202538928,1.46546814252689));
#1061=CARTESIAN_POINT('Ctrl Pts',(8.43712344280454,1.,1.5));
#1062=CARTESIAN_POINT('Ctrl Pts',(8.48196860208044,1.,1.27743285610413));
#1063=CARTESIAN_POINT('Ctrl Pts',(8.51657239327781,1.07685737894586,0.938764299850901));
#1064=CARTESIAN_POINT('Ctrl Pts',(8.4957804839149,1.380654449765,0.457300334587577));
#1065=CARTESIAN_POINT('Ctrl Pts',(8.41399773145637,1.83174202932499,0.10063575957306));
#1066=CARTESIAN_POINT('Ctrl Pts',(8.32580871093734,2.27702030346879,-2.29511078848361E-15));
#1067=CARTESIAN_POINT('Ctrl Pts',(8.28367804964777,2.5,-2.22044604925031E-15));
#1068=CARTESIAN_POINT('Ctrl Pts',(8.28367804964777,2.5,-2.0122792321331E-15));
#1069=CARTESIAN_POINT('Ctrl Pts',(8.254064986584,2.67762661432238,-2.0050261235543E-15));
#1070=CARTESIAN_POINT('Ctrl Pts',(8.22445183352114,2.85525321364054,-2.01953238552348E-15));
#1071=CARTESIAN_POINT('Ctrl Pts',(8.19483858750017,3.03287979746107,-2.0122792321331E-15));
#1072=CARTESIAN_POINT('Ctrl Pts',(8.2255475647281,2.49030876244294,-2.0122792321331E-15));
#1073=CARTESIAN_POINT('Ctrl Pts',(8.19593776740725,2.6679359009485,-1.28025803003308E-7));
#1074=CARTESIAN_POINT('Ctrl Pts',(8.1663277174214,2.84556299725903,1.30755156494433E-7));
#1075=CARTESIAN_POINT('Ctrl Pts',(8.13671780830293,3.02319011646694,-2.0122792321331E-15));
#1076=CARTESIAN_POINT('Ctrl Pts',(8.12478826877624,2.47351065256134,-0.0485787858537434));
#1077=CARTESIAN_POINT('Ctrl Pts',(8.09518370015158,2.65113862792087,-0.0485730865742149));
#1078=CARTESIAN_POINT('Ctrl Pts',(8.06557925260262,2.82876662242555,-0.0485674539454613));
#1079=CARTESIAN_POINT('Ctrl Pts',(8.03597468643897,3.0063945964017,-0.0485616316453926));
#1080=CARTESIAN_POINT('Ctrl Pts',(8.08749473561783,2.46729325235077,-0.151051254144976));
#1081=CARTESIAN_POINT('Ctrl Pts',(8.05788576890814,2.64492048142813,-0.151036729376952));
#1082=CARTESIAN_POINT('Ctrl Pts',(8.02827665393862,2.82254768485545,-0.151022146975705));
#1083=CARTESIAN_POINT('Ctrl Pts',(7.99866759678431,3.00017489662193,-0.151007306773816));
#1084=CARTESIAN_POINT('Ctrl Pts',(8.08645673924034,2.46712020253893,-0.195238315414353));
#1085=CARTESIAN_POINT('Ctrl Pts',(8.0568440869236,2.64474681686131,-0.195221302933222));
#1086=CARTESIAN_POINT('Ctrl Pts',(8.02723135121153,2.82237341617947,-0.195204108129056));
#1087=CARTESIAN_POINT('Ctrl Pts',(7.99761852943609,3.,-0.195186725010915));
#1088=CARTESIAN_POINT('Ctrl Pts',(7.99761852943609,3.,-0.195186725010915));
#1089=CARTESIAN_POINT('Ctrl Pts',(8.02723135121153,2.82237341617947,-0.195204108129056));
#1090=CARTESIAN_POINT('Ctrl Pts',(8.0568440869236,2.64474681686131,-0.195221302933222));
#1091=CARTESIAN_POINT('Ctrl Pts',(8.08645673924034,2.46712020253893,-0.195238315414353));
#1092=CARTESIAN_POINT('Ctrl Pts',(8.28367804964777,2.5,-2.0122792321331E-15));
#1093=CARTESIAN_POINT('Ctrl Pts',(8.25589217462751,2.66666668001229,-2.00547365555208E-15));
#1094=CARTESIAN_POINT('Ctrl Pts',(8.22810622037179,2.83333334681482,-2.01782509315913E-15));
#1095=CARTESIAN_POINT('Ctrl Pts',(8.20032018443622,2.99999999999999,-2.01338353539581E-15));
#1096=CARTESIAN_POINT('Origin',(8.,0.,-1.95943487863577E-15));
#1097=CARTESIAN_POINT('',(10.,2.5,-2.44929359829471E-15));
#1098=CARTESIAN_POINT('',(4.,2.5,-8.32667268468867E-16));
#1099=CARTESIAN_POINT('',(10.,0.,-2.44929359829471E-15));
#1100=CARTESIAN_POINT('Origin',(4.,2.5,1.5));
#1101=CARTESIAN_POINT('',(9.88685996664259,1.,1.5));
#1102=CARTESIAN_POINT('',(4.,1.,1.5));
#1103=CARTESIAN_POINT('Ctrl Pts',(9.88685996664259,1.,1.5));
#1104=CARTESIAN_POINT('Ctrl Pts',(9.91524618568779,1.,1.3128996182118));
#1105=CARTESIAN_POINT('Ctrl Pts',(9.93967522053196,1.03719829991221,1.11236887961371));
#1106=CARTESIAN_POINT('Ctrl Pts',(9.97413082947995,1.18997911449185,0.74244340266966));
#1107=CARTESIAN_POINT('Ctrl Pts',(9.98446254679679,1.30559055808949,0.573089098350865));
#1108=CARTESIAN_POINT('Ctrl Pts',(9.99619914865761,1.57247438405659,0.30620527238377));
#1109=CARTESIAN_POINT('Ctrl Pts',(9.99847353954562,1.74112831787635,0.190755640905117));
#1110=CARTESIAN_POINT('Ctrl Pts',(10.0002221498882,2.11070621620091,0.0376534688546865));
#1111=CARTESIAN_POINT('Ctrl Pts',(10.,2.31162829719797,-2.57979918360198E-15));
#1112=CARTESIAN_POINT('Ctrl Pts',(10.,2.5,-2.57979918360198E-15));
#1113=CARTESIAN_POINT('Origin',(0.,1.,0.));
#1114=CARTESIAN_POINT('',(1.5,1.,9.88685996664259));
#1115=CARTESIAN_POINT('',(1.5,1.,5.));
#1116=CARTESIAN_POINT('Origin',(0.,1.,0.));
#1117=CARTESIAN_POINT('Origin',(1.5,2.5,5.));
#1118=CARTESIAN_POINT('',(0.,2.5,10.));
#1119=CARTESIAN_POINT('',(0.,2.5,5.));
#1120=CARTESIAN_POINT('Ctrl Pts',(-2.77555756156289E-16,2.5,10.));
#1121=CARTESIAN_POINT('Ctrl Pts',(-2.61870661033389E-16,2.31162829719797,
10.));
#1122=CARTESIAN_POINT('Ctrl Pts',(0.0376534688546891,2.11070621620091,10.0002221498882));
#1123=CARTESIAN_POINT('Ctrl Pts',(0.190755640905119,1.74112831787635,9.99847353954562));
#1124=CARTESIAN_POINT('Ctrl Pts',(0.306205272383772,1.57247438405659,9.99619914865761));
#1125=CARTESIAN_POINT('Ctrl Pts',(0.573089098350868,1.30559055808949,9.98446254679679));
#1126=CARTESIAN_POINT('Ctrl Pts',(0.742443402669662,1.18997911449185,9.97413082947995));
#1127=CARTESIAN_POINT('Ctrl Pts',(1.11236887961372,1.03719829991221,9.93967522053195));
#1128=CARTESIAN_POINT('Ctrl Pts',(1.3128996182118,1.,9.91524618568779));
#1129=CARTESIAN_POINT('Ctrl Pts',(1.5,1.,9.8868599666426));
#1130=CARTESIAN_POINT('Origin',(0.,0.,10.));
#1131=CARTESIAN_POINT('',(0.,3.,10.));
#1132=CARTESIAN_POINT('',(0.,3.,10.));
#1133=CARTESIAN_POINT('',(0.,0.,10.));
#1134=CARTESIAN_POINT('Origin',(0.,1.5,0.));
#1135=CARTESIAN_POINT('Origin',(0.,3.,0.));
#1136=CARTESIAN_POINT('',(-8.5,0.,-1.04094977927525E-15));
#1137=CARTESIAN_POINT('',(-8.25,1.5,1.01033360929657E-15));
#1138=CARTESIAN_POINT('Origin',(0.,0.,0.));
#1139=CARTESIAN_POINT('Origin',(0.,0.,0.));
#1140=CARTESIAN_POINT('',(-1.20015386316441E-15,0.,-9.8));
#1141=CARTESIAN_POINT('Origin',(0.,0.,0.));
#1142=CARTESIAN_POINT('Origin',(0.,0.2,0.));
#1143=CARTESIAN_POINT('',(-1.22464679914735E-15,0.2,-10.));
#1144=CARTESIAN_POINT('',(-10.,0.2,1.22464679914735E-15));
#1145=CARTESIAN_POINT('Origin',(0.,0.2,0.));
#1146=CARTESIAN_POINT('Origin',(0.,0.2,0.));
#1147=CARTESIAN_POINT('Origin',(-1.20015386316441E-15,0.2,-9.8));
#1148=CARTESIAN_POINT('Origin',(0.,0.,0.));
#1149=CARTESIAN_POINT('Origin',(0.,3.,0.));
#1150=CARTESIAN_POINT('',(-10.,0.,1.22464679914735E-15));
#1151=CARTESIAN_POINT('Origin',(-5.,3.,5.));
#1152=UNCERTAINTY_MEASURE_WITH_UNIT(LENGTH_MEASURE(0.01),#1156,
'DISTANCE_ACCURACY_VALUE',
'Maximum model space distance between geometric entities at asserted c
onnectivities');
#1153=UNCERTAINTY_MEASURE_WITH_UNIT(LENGTH_MEASURE(0.01),#1156,
'DISTANCE_ACCURACY_VALUE',
'Maximum model space distance between geometric entities at asserted c
onnectivities');
#1154=(
GEOMETRIC_REPRESENTATION_CONTEXT(3)
GLOBAL_UNCERTAINTY_ASSIGNED_CONTEXT((#1152))
GLOBAL_UNIT_ASSIGNED_CONTEXT((#1156,#1158,#1159))
REPRESENTATION_CONTEXT('','3D')
);
#1155=(
GEOMETRIC_REPRESENTATION_CONTEXT(3)
GLOBAL_UNCERTAINTY_ASSIGNED_CONTEXT((#1153))
GLOBAL_UNIT_ASSIGNED_CONTEXT((#1156,#1158,#1159))
REPRESENTATION_CONTEXT('','3D')
);
#1156=(
LENGTH_UNIT()
NAMED_UNIT(*)
SI_UNIT(.MILLI.,.METRE.)
);
#1157=(
LENGTH_UNIT()
NAMED_UNIT(*)
SI_UNIT($,.METRE.)
);
#1158=(
NAMED_UNIT(*)
PLANE_ANGLE_UNIT()
SI_UNIT($,.RADIAN.)
);
#1159=(
NAMED_UNIT(*)
SI_UNIT($,.STERADIAN.)
SOLID_ANGLE_UNIT()
);
#1160=SHAPE_DEFINITION_REPRESENTATION(#1161,#1162);
#1161=PRODUCT_DEFINITION_SHAPE('',$,#1164);
#1162=SHAPE_REPRESENTATION('',(#457),#1154);
#1163=PRODUCT_DEFINITION_CONTEXT('part definition',#1168,'design');
#1164=PRODUCT_DEFINITION('universal 20x3mm tutti',
'universal 20x3mm tutti v2',#1165,#1163);
#1165=PRODUCT_DEFINITION_FORMATION('',$,#1170);
#1166=PRODUCT_RELATED_PRODUCT_CATEGORY('universal 20x3mm tutti v2',
'universal 20x3mm tutti v2',(#1170));
#1167=APPLICATION_PROTOCOL_DEFINITION('international standard',
'automotive_design',2009,#1168);
#1168=APPLICATION_CONTEXT(
'Core Data for Automotive Mechanical Design Process');
#1169=PRODUCT_CONTEXT('part definition',#1168,'mechanical');
#1170=PRODUCT('universal 20x3mm tutti','universal 20x3mm tutti v2',$,(#1169));
#1171=PRESENTATION_STYLE_ASSIGNMENT((#1172));
#1172=SURFACE_STYLE_USAGE(.BOTH.,#1173);
#1173=SURFACE_SIDE_STYLE('',(#1174));
#1174=SURFACE_STYLE_FILL_AREA(#1175);
#1175=FILL_AREA_STYLE('Steel - Satin',(#1176));
#1176=FILL_AREA_STYLE_COLOUR('Steel - Satin',#1177);
#1177=COLOUR_RGB('Steel - Satin',0.627450980392157,0.627450980392157,0.627450980392157);
ENDSEC;
END-ISO-10303-21;
